<?xml version="1.0" encoding="utf-8"?>
<!-- Generator: Adobe Illustrator 27.3.1, SVG Export Plug-In . SVG Version: 6.00 Build 0)  -->
<svg version="1.2" baseProfile="tiny" id="Layer_1" xmlns="http://www.w3.org/2000/svg" xmlns:xlink="http://www.w3.org/1999/xlink"
	 x="0px" y="0px" viewBox="0 0 238.9 151.6" overflow="visible" xml:space="preserve">
<g>
	<path fill="#C5DAFC" d="M208.1,75.3c-0.3,7.1-1.5,14.2-3.7,21c-1.3,4.3-3.1,8.4-5.1,12.4c-2.5,5.1-5.4,9.9-8.8,14.3
		c-2.5,3.2-5.2,6.3-8,9.1c-2,1.9-4.3,2.3-6.6,1.5c-2.5-0.8-3.9-2.9-4.1-5.5v-0.8c0.3-2,1.3-3.4,2.6-4.7c8-8.1,13.7-17.6,17.5-28.5
		c3.3-9.5,4.6-19.2,3.7-29.3c-1.2-15.2-6.3-29-15.9-41c-1.8-2.1-3.3-4.4-5.5-6c-0.2-0.5-0.7-1-1.2-1.2c-0.3-1.2-1.4-2.1-1.2-3.4
		v-0.8c0.2-2.7,1.5-4.8,4.1-5.6c2.3-0.8,4.6-0.3,6.6,1.7c12.8,12.6,20.9,27.9,24.4,45.6C208.3,61.1,208.4,68.3,208.1,75.3z"/>
	<path fill="#C5DAFC" d="M44.1,62.7c-0.2,3-0.3,5.9-0.3,9c0.1,7.4,1.3,14.5,3.6,21.7c2.5,8,6.4,15.3,11.4,22
		c1.9,2.5,3.8,5.1,6.2,7.1c1.4,1.4,2.4,3,2.7,4.9v0.8c-0.2,2.6-1.5,4.7-4.1,5.5c-2.3,0.8-4.6,0.3-6.5-1.5
		c-10.2-10-17.5-21.9-21.9-35.5c-1.9-5.8-3-11.9-3.5-18c-0.7-8.1-0.2-16.2,1.1-24.2c2.5-14.3,8.5-26.9,17.5-38.3
		c2-2.5,4.2-4.8,6.4-7.3c2-2.1,4.4-2.7,6.9-2c2.6,0.8,3.7,3,4.1,5.6v0.8c0.1,1.6-0.9,2.9-2,4c-8.4,8.4-14.4,18.1-18.3,29.4
		C45.7,51.8,44.4,57.1,44.1,62.7z"/>
	<path fill="#C5DAFC" d="M89.2,109.3c-2.3,2.4-6.3,2.2-8.6,0c-7.3-7-11.9-15.5-14.6-25.1c-1.2-4.5-1.8-9.1-1.8-15.5
		c0.4-13.3,5.4-26.3,16.1-37.1c2.6-2.7,8.2-2.5,10.1,1.3c1,2.1,0.5,5.4-1.3,7.3c-4,4.1-7.1,8.7-9.2,14c-3.3,8-4,16.2-2.3,24.6
		c1.6,8.5,5.7,15.5,11.7,21.7C91.7,103,91.6,106.8,89.2,109.3z"/>
	<path fill="#C5DAFC" d="M175.4,72.7c-0.4,11-4.4,22.5-12.6,32.6c-1.2,1.4-2.4,2.6-3.7,4c-2.2,2.4-6.4,2.5-8.7,0.1
		c-2.3-2.5-2.4-6.3,0.1-8.9c5.3-5.4,9.1-11.7,11.1-19c3.4-13.3,1-25.6-7.3-36.7c-1.1-1.5-2.5-3-3.8-4.4c-2.4-2.5-2.3-6.4-0.1-8.9
		c1.9-2,6.7-2,8.8,0.1c6.2,6.2,10.7,13.4,13.4,21.7C174.4,58.8,175.3,64.8,175.4,72.7z"/>
	<path fill="#3B82F6" d="M135.9,72.7c-0.9,6.5-5.1,11.3-11.8,13.5c-8.4,2.6-17.3-3-19.9-10.3c-3.4-9.2,2.2-19.7,12.1-21.6
		c5.5-1.1,10.9,0.2,15.1,4.5l0.3,0.3C135.4,62.9,136.6,67.6,135.9,72.7z"/>
	<path fill="#FEFEFF" d="M174.2,17.9c-0.9,0.1-1.3-0.3-1.2-1.2C173.5,16.9,174,17.3,174.2,17.9z"/>
	<path fill="#FEFEFF" d="M68.3,12.9c0,0.1-0.3,0.2-0.5,0.3v-0.8C68,12.5,68.4,12.5,68.3,12.9z"/>
	<path fill="#FEFEFF" d="M171.8,12.5v0.8c-0.2-0.1-0.6-0.1-0.6-0.5C171.3,12.6,171.7,12.6,171.8,12.5z"/>
	<path fill="#FEFEFF" d="M68.3,127.9c0,0.1-0.3,0.2-0.5,0.3v-0.8C68,127.5,68.4,127.5,68.3,127.9z"/>
	<path fill="#FEFEFF" d="M171.8,127.5v0.8c-0.2-0.1-0.6-0.1-0.6-0.4C171.3,127.6,171.7,127.6,171.8,127.5z"/>
	<path fill="#FDFEFF" d="M131.7,59.1c-0.2,0-0.4-0.1-0.3-0.3C131.5,58.9,131.6,59,131.7,59.1z"/>
</g>
</svg>
