<?xml version="1.0" encoding="utf-8"?>
<!-- Generator: Adobe Illustrator 26.3.1, SVG Export Plug-In . SVG Version: 6.00 Build 0)  -->
<svg version="1.2" baseProfile="tiny" id="Layer_1" xmlns="http://www.w3.org/2000/svg" xmlns:xlink="http://www.w3.org/1999/xlink"
	 x="0px" y="0px" viewBox="0 0 420.94 595.92" overflow="visible" xml:space="preserve">
<rect fill="#222B5E" width="420.94" height="194.95"/>
<rect y="194.95" fill="#FFFFFF" width="420.94" height="400.97"/>
<g>
	<g>
		<path fill="#FDBA24" d="M182.91,92.67c-0.38-1.18-1.01-2.31-1.59-3.37c-0.85-1.53-1.89-2.87-2.9-4.28
			c-0.99-1.39-1.9-2.85-3.1-4.08c-0.04-0.05-0.28-0.33-0.36-0.27c2.04-1.38,4.08-2.76,6.12-4.14c0.69-0.47,1.12-1.37,0.65-2.16
			c-0.41-0.68-1.42-1.14-2.16-0.65l-6.5,4.39c-0.09,0.06-0.18,0.13-0.26,0.21c-2.36-2.46-4.91-4.76-7.6-6.87
			c-1.71-1.34-3.49-2.61-5.32-3.79c2-3.09,3.99-6.17,5.99-9.26c0.56-0.87,0.3-2.2-0.62-2.73c-0.94-0.54-2.13-0.31-2.73,0.62
			c-2.01,3.11-4.02,6.21-6.03,9.32c-4.71-2.7-9.71-4.89-14.87-6.57c1.72-3.38,3.07-6.94,3.98-10.62c0.22-0.89-0.2-1.95-1.15-2.2
			c-0.88-0.23-1.97,0.2-2.2,1.15c-0.49,1.98-1.1,3.93-1.84,5.83c-0.35,0.9-0.72,1.79-1.12,2.66c-0.02,0.05-0.08,0.16-0.09,0.19
			c-0.06,0.12-0.12,0.25-0.18,0.37c-0.11,0.22-0.22,0.45-0.33,0.67c-0.15,0.31-0.31,0.61-0.47,0.91c-4.76-1.34-9.66-2.3-14.6-2.83
			c-0.09-0.01,0.77-11.4,0.8-12.48c0.01-0.6,0-1.25-0.33-1.75c-0.26-0.39-0.7-0.65-1.17-0.68c-0.47-0.04-0.94,0.15-1.26,0.49
			c-0.43,0.47-0.53,1.14-0.6,1.77c-0.09,0.86-0.81,12.35-0.82,12.35c-3.77-0.25-7.55-0.25-11.29,0.02
			c-0.82,0.06-1.65,0.21-2.47,0.26c-0.88-3.27-1.75-6.53-2.63-9.8c-0.24-0.88-1.18-1.55-2.1-1.29c-0.89,0.25-1.54,1.16-1.29,2.1
			l2.55,9.49c-1.94,0.4-3.94,1.03-5.86,1.52c-0.64,0.16-7.19,2.29-7.13,2.45c-0.06-0.11-0.52-0.61-0.59-0.71
			c-0.05-0.06-0.1-0.13-0.14-0.2c-0.02-0.02-0.04-0.06-0.07-0.1c-0.09-0.13-0.18-0.26-0.28-0.4c-0.21-0.31-0.42-0.62-0.62-0.94
			c-0.4-0.63-0.79-1.28-1.15-1.94c-0.72-1.32-1.36-2.68-1.91-4.08c-0.33-0.83-1.58-1.12-2.3-0.69c-0.86,0.52-1.04,1.41-0.69,2.3
			c1.09,2.76,2.92,5.72,4.64,8.14c-1.79,0.87-3.53,1.84-5.21,2.93c-2.59,1.67-5.01,3.58-7.23,5.69c-0.08-0.21-0.59-0.8-0.75-0.98
			c-1.15-1.24-2.3-2.48-3.45-3.71c-0.64-0.69-1.86-0.78-2.54-0.09c-0.68,0.69-0.77,1.8-0.09,2.54c1.15,1.24,2.3,2.48,3.45,3.71
			c0.68,0.73-1.53,2.96-2.09,3.79c-1.33,1.96-2.56,4.01-3.74,6.07c-1.05,1.82-1.64,3.76-2.25,5.75c0.94-0.76,1.88-1.51,2.75-2.35
			c1.11-1.07,2.25-2.11,3.42-3.12c0.84-0.72,1.75-1.22,2.57-1.98c0.91-0.84,1.84-1.65,2.8-2.43c1.91-1.56,3.93-3,6.02-4.31
			c14.64-9.17,32.98-10.9,49.79-8.02c16.32,2.79,32.84,10.63,44.64,22.38c1.42,1.41,2.77,2.92,4.02,4.49
			c0.94,1.18,1.94,2.3,2.96,3.42c0.22,0.25,0.8,0.87,1.16,0.54c0.24-0.22,0.14-0.81,0.12-1.09
			C183.2,93.72,183.08,93.19,182.91,92.67z"/>
		<path fill="#FDBA24" d="M171.64,69.24c0.47-0.02,0.97-0.14,1.42-0.53c0.26-0.22,0.72-0.57,0.83-1.18
			c0.25-1.47-0.87-1.69-1.34-1.67c-0.47,0.02-0.97,0.14-1.42,0.53c-0.26,0.22-0.72,0.57-0.83,1.18
			C170.05,69.05,171.18,69.27,171.64,69.24z"/>
		<path fill="#FDBA24" d="M64.94,74.48c0.12-0.22,0.19-0.47,0.06-0.77c-0.07-0.17-0.18-0.47-0.57-0.66
			c-0.94-0.47-1.42-0.01-1.55,0.2c-0.12,0.22-0.19,0.47-0.06,0.77c0.07,0.17,0.18,0.47,0.57,0.66
			C64.33,75.15,64.82,74.7,64.94,74.48z"/>
		<path fill="#FDBA24" d="M183.06,84.37c0.33,0.02,0.68-0.03,1.02-0.27c0.19-0.14,0.54-0.36,0.65-0.79c0.26-1.04-0.5-1.28-0.83-1.3
			c-0.33-0.02-0.68,0.03-1.02,0.27c-0.19,0.14-0.54,0.36-0.65,0.79C181.97,84.11,182.74,84.35,183.06,84.37z"/>
		<path fill="#FDBA24" d="M94.97,50.15c-0.21-0.76-0.5-1.54-0.97-2.17c-0.27-0.37-0.73-1.03-1.23-1.05
			c-1.22-0.04-0.94,1.83-0.74,2.58c0.21,0.76,0.5,1.54,0.97,2.17c0.27,0.37,0.73,1.03,1.23,1.05C95.46,52.77,95.18,50.9,94.97,50.15
			z"/>
		<path fill="#FDBA24" d="M77.71,58.65c-0.3-0.54-0.69-1.06-1.2-1.4c-0.3-0.2-0.81-0.56-1.26-0.39c-1.1,0.42-0.55,1.82-0.25,2.35
			c0.3,0.54,0.69,1.06,1.2,1.4c0.3,0.2,0.81,0.56,1.26,0.39C78.56,60.58,78.01,59.18,77.71,58.65z"/>
		<path fill="#FDBA24" d="M113.64,47.49c0.01-0.79-0.06-1.62-0.34-2.36c-0.16-0.43-0.42-1.19-0.9-1.34
			c-1.17-0.37-1.4,1.51-1.41,2.29c-0.01,0.79,0.06,1.62,0.34,2.36c0.16,0.43,0.42,1.19,0.9,1.34
			C113.4,50.15,113.63,48.27,113.64,47.49z"/>
		<path fill="#FDBA24" d="M133.76,49.68c0.25-0.75,0.44-1.56,0.4-2.35c-0.02-0.46-0.03-1.26-0.45-1.56c-1-0.71-1.8,1.01-2.04,1.74
			c-0.25,0.75-0.44,1.56-0.4,2.35c0.02,0.46,0.03,1.26,0.45,1.56C132.71,52.13,133.52,50.41,133.76,49.68z"/>
		<path fill="#FDBA24" d="M153.7,56.44c0.44-0.65,0.83-1.39,1-2.16c0.1-0.45,0.3-1.23-0.02-1.62c-0.77-0.95-2,0.5-2.43,1.15
			c-0.44,0.65-0.83,1.39-1,2.16c-0.1,0.45-0.3,1.23,0.02,1.62C152.04,58.53,153.27,57.08,153.7,56.44z"/>
		<path fill="#FFFFFF" d="M102.18,88.08c0.58-0.42,1.07-0.72,1.49-1.1c1.8-1.64,3.07-3.62,3.74-5.97c0.33-1.16,0.37-2.35-0.16-3.49
			c-0.11-0.24-0.14-0.51-0.21-0.75c0.71-0.35,1.01-0.31,1.5,0.29c0.74,0.92,0.98,2,0.84,3.16c-0.3,2.43-1.34,4.55-2.74,6.51
			c-0.7,0.99-1.51,1.94-2.42,2.74c-1.57,1.37-3.33,1.04-4.37-0.77c-0.37-0.64-0.64-1.36-0.82-2.07c-0.74-2.83-0.77-5.71-0.38-8.6
			c0.07-0.48,0.25-0.84,0.8-0.9c0.51-0.05,0.91,0.17,1.12,0.7c0.11,0.28,0.15,0.59,0.15,0.89c0.01,0.75-0.04,1.5-0.02,2.24
			c0.04,1.46,0.09,2.92,0.2,4.37c0.04,0.53,0.2,1.08,0.42,1.56C101.49,87.3,101.84,87.64,102.18,88.08z"/>
		<path fill="#FFFFFF" d="M114.09,85.33c0.01,0.06,0.02,0.1,0.03,0.14s0.02,0.06,0.02,0.08c0.01,0.04,0.01,0.06,0.01,0.07
			c-0.01,0.05-0.01,0.11-0.02,0.16c-0.01,0.05-0.01,0.11-0.02,0.16c0,0.05-0.01,0.11-0.01,0.16c0,0.05-0.01,0.11-0.01,0.16
			c0,0.05-0.01,0.11-0.01,0.16c0,0.05,0,0.11-0.01,0.16s0,0.11,0,0.16c0,0.05,0,0.11,0,0.16c0,0.05,0,0.11,0,0.16
			c0,0.05,0,0.11,0,0.16c0,0.05,0,0.11,0,0.16c0,0.05,0,0.11,0,0.16c0,0.05,0,0.11,0,0.16c0,0.05,0,0.11,0,0.16s0,0.11,0.01,0.16
			c0,0.05,0,0.11,0.01,0.16c0,0.05,0.01,0.11,0.01,0.16s0.01,0.11,0.01,0.16s0.01,0.11,0.02,0.16s0.01,0.11,0.02,0.16
			s0.02,0.11,0.03,0.16c0.01,0.05,0.02,0.11,0.03,0.16c0.01,0.03,0,0.06,0,0.1c-0.01,0.04-0.02,0.08-0.03,0.12
			c-0.01,0.04-0.03,0.08-0.05,0.12c-0.02,0.04-0.04,0.08-0.06,0.11c-0.02,0.03-0.05,0.06-0.07,0.08c-0.02,0.02-0.05,0.04-0.07,0.04
			c-0.04,0.01-0.08,0.02-0.12,0.03c-0.04,0.01-0.08,0.02-0.12,0.02c-0.04,0.01-0.08,0.01-0.13,0.01c-0.04,0-0.08,0.01-0.13,0.01
			c-0.04,0-0.08,0-0.12,0c-0.04,0-0.08-0.01-0.12-0.02c-0.04-0.01-0.08-0.02-0.11-0.03c-0.04-0.01-0.07-0.03-0.1-0.04
			c-0.03-0.02-0.07-0.04-0.1-0.06c-0.03-0.02-0.06-0.05-0.09-0.08c-0.03-0.03-0.06-0.06-0.08-0.09c-0.03-0.03-0.05-0.06-0.08-0.1
			c-0.02-0.03-0.05-0.07-0.07-0.11c-0.02-0.04-0.04-0.07-0.06-0.11c-0.02-0.04-0.04-0.08-0.06-0.11s-0.04-0.07-0.05-0.11
			c-0.02-0.05-0.05-0.11-0.07-0.16c-0.02-0.05-0.04-0.11-0.06-0.16s-0.04-0.11-0.05-0.16c-0.02-0.05-0.03-0.11-0.05-0.16
			c-0.01-0.05-0.03-0.11-0.04-0.16c-0.01-0.05-0.02-0.11-0.03-0.16c-0.01-0.05-0.02-0.11-0.03-0.16c-0.01-0.05-0.02-0.11-0.02-0.16
			c-0.01-0.05-0.01-0.11-0.02-0.16c0-0.05-0.01-0.11-0.01-0.16c0-0.05,0-0.11-0.01-0.16c0-0.05,0-0.11,0-0.16c0-0.05,0-0.11,0-0.16
			s0-0.11,0.01-0.17c0-0.06,0.01-0.11,0.01-0.17c0-0.06,0.01-0.11,0.02-0.17c0.01-0.06,0.01-0.11,0.02-0.17s0.02-0.11,0.02-0.17
			c0.01-0.06,0.02-0.11,0.03-0.17c0.01-0.06,0.02-0.11,0.03-0.17c0.01-0.04,0.02-0.08,0.03-0.12c0.01-0.04,0.02-0.08,0.04-0.12
			c0.01-0.04,0.03-0.08,0.05-0.12c0.02-0.04,0.04-0.08,0.06-0.11c0.02-0.04,0.04-0.07,0.06-0.11c0.02-0.03,0.05-0.07,0.07-0.1
			c0.03-0.03,0.05-0.06,0.08-0.09s0.06-0.05,0.09-0.07c0.03-0.02,0.06-0.04,0.09-0.06s0.07-0.04,0.11-0.05
			c0.04-0.02,0.08-0.03,0.12-0.04c0.04-0.01,0.08-0.02,0.12-0.03c0.04-0.01,0.08-0.01,0.12-0.02s0.08-0.01,0.12,0
			c0.04,0,0.08,0,0.12,0.01c0.04,0.01,0.07,0.01,0.11,0.03c0.04,0.01,0.09,0.04,0.12,0.06c0.04,0.03,0.08,0.06,0.11,0.1
			s0.07,0.07,0.1,0.11c0.03,0.04,0.06,0.08,0.09,0.11s0.05,0.07,0.08,0.1C114.05,85.29,114.07,85.31,114.09,85.33z"/>
		<path fill="#FFFFFF" d="M113.54,83.09c-0.54,0.07-1.14-0.34-1.21-0.83c-0.06-0.4,0.37-0.89,0.85-0.98
			c0.56-0.1,1.08,0.28,1.16,0.85C114.4,82.64,114.09,83.02,113.54,83.09z"/>
		<path fill="#FFFFFF" d="M134.86,73.89c-0.73-0.97-1.81,0.24-2.05,0.96c-0.27,0.85-0.23,1.76-0.36,2.63
			c-0.13,0.89-0.27,1.78-0.31,2.68c-0.01,0.24-0.06,0.47-0.09,0.71c-0.04,0.33-0.22,0.45-0.54,0.49c-0.33,0.05-0.68,0.1-0.98,0.24
			c-0.69,0.33-0.75,1.1-0.13,1.55c0.21,0.15,0.48,0.28,0.74,0.31c0.77,0.09,0.99,0.55,1.05,1.24c0.09,0.91,0.2,1.82,0.4,2.71
			c0.2,0.89,0.48,1.76,0.78,2.62c0.2,0.58,0.59,1.07,1.09,1.44c0.76,0.55,1.79,0.39,2.36-0.35c0.27-0.36,0.23-0.57-0.17-0.83
			c-0.09-0.05-0.18-0.11-0.27-0.14c-0.72-0.16-1.12-0.69-1.29-1.32c-0.35-1.34-0.67-2.69-0.9-4.06c-0.15-0.87,0.04-1,0.94-1.01
			c0.68-0.01,1.36,0.01,2.04,0.01c0.2,0,0.41,0,0.61-0.01c0.27-0.02,0.59-0.01,0.66-0.34c0.07-0.35-0.26-0.44-0.49-0.56
			c-0.89-0.44-1.84-0.68-2.82-0.84c-0.94-0.15-1.19-0.37-1.12-1.34c0.08-1.21,0.26-2.42,0.46-3.62c0.13-0.82,0.6-1.59,0.6-2.44
			C135.09,74.34,135.01,74.08,134.86,73.89z"/>
		<path fill="#FFFFFF" d="M119.05,82.64c0.31,0.35,0.58,0.7,0.88,0.99c0.27,0.26,0.59,0.45,0.88,0.69c1,0.82,1.22,2.03,0.49,3.08
			c-0.74,1.07-1.68,1.96-2.8,2.63c-0.12,0.07-0.24,0.13-0.36,0.18c-0.27,0.1-0.58,0.11-0.73-0.15c-0.11-0.21-0.15-0.51-0.1-0.75
			c0.04-0.21,0.23-0.41,0.38-0.59c0.48-0.57,0.98-1.12,1.47-1.69c0.24-0.28,0.47-0.57,0.69-0.85c-0.13-0.45-0.51-0.57-0.78-0.81
			c-0.55-0.49-1.12-0.98-1.62-1.52c-0.47-0.51-0.5-1.18-0.39-1.83c0.17-1.03,1.51-1.8,2.53-1.49c0.52,0.16,0.68,0.77,0.3,1.25
			C119.66,82.06,119.38,82.31,119.05,82.64z"/>
		<path fill="#FFFFFF" d="M126.88,85.42c0.01,0.33,0.03,0.53,0.02,0.73c-0.06,0.94,0.2,1.8,0.63,2.62c0.02,0.03,0.03,0.06,0.05,0.09
			c0.12,0.28,0.28,0.56,0.03,0.85c-0.24,0.27-0.77,0.37-1.12,0.17c-0.23-0.13-0.43-0.32-0.6-0.53c-0.81-0.96-1.01-2.11-0.91-3.32
			c0.02-0.28,0.17-0.59,0.34-0.82c0.2-0.28,0.53-0.5,0.88-0.33C126.47,85,126.69,85.26,126.88,85.42z"/>
		<path fill="#FFFFFF" d="M125.96,81.23c0.55-0.06,0.99,0.28,1.08,0.83c0.08,0.49-0.26,0.89-0.81,0.96
			c-0.52,0.06-1.17-0.42-1.19-0.87C125.02,81.72,125.46,81.29,125.96,81.23z"/>
		<path fill="#FFFFFF" d="M62.21,109.21c0.98-0.63,1.73-1.03,2.37-1.55c2.07-1.67,4.11-3.4,6.16-5.1c0.43-0.35,0.86-0.72,1.35-0.99
			c0.88-0.49,1.71-0.31,2.33,0.42c0.77,0.92,0.83,1.59,0.1,2.48c-0.55,0.67-1.16,1.3-1.82,1.85c-2.66,2.23-5.37,4.4-8.02,6.64
			c-0.79,0.66-1.72,1.25-2,2.49c1.37,0.64,2.85,0.73,4.29,0.91c2.21,0.28,4.43,0.45,6.64,0.75c0.66,0.09,1.3,0.39,1.9,0.71
			c0.28,0.15,0.64,0.61,0.58,0.82c-0.1,0.35-0.47,0.78-0.8,0.87c-0.95,0.25-1.95,0.48-2.93,0.48c-3.16,0.02-6.33-0.03-9.49-0.13
			c-1.55-0.05-1.56-0.12-1.99,1.47c-0.1,0.36-0.15,0.73-0.27,1.08c-0.35,1.02-1.27,1.31-1.98,0.53c-0.47-0.52-0.82-1.25-0.95-1.94
			c-0.23-1.21-0.32-2.46-0.34-3.7c-0.07-6.01-0.09-12.03-0.13-18.04c0-0.12,0-0.25,0-0.37c0.06-1.38,0.4-2,1.25-2.24
			c1.01-0.29,2.14,0.11,2.6,1.28c0.51,1.3,0.82,2.72,0.97,4.12c0.17,1.66,0.06,3.34,0.08,5.02
			C62.11,107.66,62.16,108.25,62.21,109.21z"/>
		<path fill="#FFFFFF" d="M117.98,112.93c-0.77,1.1-1.34,1.91-1.9,2.71c-1.27,1.79-2.74,3.35-4.67,4.45
			c-1.82,1.03-3.63,1.25-5.41-0.04c-1.57-1.14-2.3-3.47-1.84-5.51c0.42-1.85,1.54-3.26,2.88-4.46c1.9-1.7,4.15-2.69,6.78-2.58
			c0.75,0.03,1.49,0.14,2,0.8c0.35,0.45,0.31,0.98-0.18,1.26c-0.31,0.18-0.69,0.24-1.04,0.36c-1.64,0.58-3.28,1.14-4.59,2.36
			c-0.93,0.86-1.65,1.86-1.97,3.09c-0.16,0.6-0.24,1.27,0.34,1.72c0.57,0.44,1.2,0.28,1.75-0.05c1.77-1.05,3.39-2.31,4.71-3.9
			c2.34-2.82,3.53-6.09,3.68-9.72c0.08-1.86,0-3.72,0.03-5.58c0.01-0.55,0.08-1.12,0.25-1.64c0.21-0.69,0.71-1.15,1.44-1.31
			c0.74-0.16,1.28,0.02,1.48,0.74c0.34,1.24,0.68,2.53,0.71,3.8c0.07,2.6-0.07,5.2-0.13,7.8c-0.01,0.37-0.03,0.74-0.05,1.11
			c-0.12,2.12-0.25,4.24-0.38,6.36c-0.07,1.16-0.06,2.33-0.28,3.47c-0.14,0.73-0.42,1.45-0.93,2c-0.22,0.23-0.51,0.41-0.82,0.43
			c-1.64,0.11-1.58-2.5-1.52-3.53c0.05-1,0.11-2,0.12-3C118.43,113.82,118.23,113.55,117.98,112.93z"/>
		<path fill="#FFFFFF" d="M149.91,103.25c0,0.93-0.02,1.86,0.01,2.79c0.05,1.61,0.18,1.73,1.88,1.79c0.99,0.03,1.99,0.02,2.98,0.03
			c0.37,0.01,0.76-0.03,1.11,0.06c0.27,0.07,0.69,0.28,0.72,0.47c0.05,0.31-0.07,0.8-0.3,0.96c-0.58,0.42-1.23,0.81-1.92,1.02
			c-0.76,0.23-1.59,0.24-2.39,0.35c-1.85,0.24-2.1,0.5-2.14,2.33c-0.05,2.67-0.05,5.33,0.56,7.95c0.11,0.46,0.07,0.97-0.03,1.44
			c-0.1,0.49-0.38,0.91-0.97,0.98c-0.67,0.08-1.32-0.03-1.6-0.67c-0.36-0.84-0.7-1.74-0.8-2.64c-0.23-1.96-0.31-3.94-0.43-5.92
			c-0.03-0.49,0.02-0.99-0.02-1.49c-0.09-1.12-0.36-1.34-1.47-1.51c-0.85-0.13-1.68-0.34-2.51-0.53c-0.18-0.04-0.35-0.14-0.5-0.25
			c-0.67-0.46-1.38-0.92-1.24-1.89c0.12-0.8,1.3-1.6,2.31-1.5c0.73,0.07,1.44,0.34,2.15,0.53c1,0.25,1.32,0.14,1.36-0.86
			c0.05-1.41-0.07-2.83-0.23-4.24c-0.15-1.35-0.47-2.68-0.68-4.02c-0.17-1.08,0.32-1.94,1.2-2.2c0.95-0.27,1.87,0.09,2.22,1.17
			c0.38,1.16,0.54,2.4,0.7,3.62c0.1,0.73,0.02,1.49,0.02,2.23C149.9,103.25,149.91,103.25,149.91,103.25z"/>
		<path fill="#FFFFFF" d="M88.36,111.66c-0.63,0.94-1.06,1.52-1.43,2.14c-0.51,0.85-0.95,1.74-1.49,2.56
			c-0.64,0.97-1.58,1.55-2.73,1.78c-1.54,0.31-2.65-0.15-3.51-1.47c-0.17-0.26-0.32-0.54-0.43-0.82c-1.22-3.03-1.28-6.17-0.74-9.32
			c0.09-0.52,0.63-1.08,1.11-1.38c0.89-0.56,1.98-0.16,2.22,0.86c0.2,0.87,0.17,1.83,0.04,2.73c-0.23,1.56-0.24,3.08,0.23,4.6
			c0.09,0.29,0.19,0.59,0.34,0.86c0.27,0.48,0.72,0.56,1.06,0.17c0.37-0.42,0.69-0.88,0.98-1.35c1.16-1.91,2.28-3.84,3.45-5.74
			c0.32-0.52,0.68-1.06,1.13-1.46c0.76-0.67,1.51-0.63,2.08,0.21c0.47,0.7,0.81,1.54,0.99,2.36c0.46,2.11,0.55,4.3,1.4,6.33
			c0.27,0.66-0.18,1.33-0.89,1.26c-0.63-0.06-1.34-0.33-1.82-0.73c-0.5-0.41-0.79-1.09-1.12-1.68
			C88.96,113.1,88.77,112.58,88.36,111.66z"/>
		<path fill="#FFFFFF" d="M155.14,118.4c0.03-2.46,0.53-4.37,1.45-6.15c0.31-0.59,0.77-1.13,1.27-1.59c1.2-1.09,2.84-1.08,4.06-0.06
			c0.64,0.53,0.72,0.99,0.17,1.57c-0.33,0.35-0.75,0.66-1.19,0.87c-1.37,0.65-2.49,3.93-2.03,5.66c0.13,0.49,0.62,0.66,1.01,0.31
			c0.41-0.37,0.81-0.78,1.11-1.24c0.75-1.13,1.45-2.31,2.17-3.46c0.23-0.37,0.41-0.77,0.69-1.09c0.92-1.07,2.01-1.15,2.83-0.05
			c1.11,1.49,2.05,3.1,3.04,4.67c0.33,0.52,0.35,1.06-0.16,1.51c-0.51,0.45-1.07,0.65-1.68,0.21c-0.55-0.4-1.09-0.81-1.62-1.24
			c-1.09-0.89-1.37-0.87-2.21,0.29c-0.29,0.4-0.5,0.86-0.79,1.26c-0.54,0.75-1.03,1.57-1.69,2.21c-2.12,2.07-5.19,1.27-6.03-1.55
			C155.31,119.7,155.22,118.83,155.14,118.4z"/>
		<path fill="#FFFFFF" d="M182.74,113.15c-2.27,1.29-3.58,3.11-4.97,4.84c-0.27,0.34-0.49,0.71-0.75,1.06
			c-1.08,1.42-2.95,1.24-3.71-0.37c-0.21-0.44-0.38-0.94-0.4-1.42c-0.06-1.79-0.06-3.59-0.06-5.39c0-0.24,0.09-0.48,0.19-0.71
			c0.48-1.16,2.24-1.51,2.82-0.35c0.81,1.62,2.18,1.5,3.6,0.55c0.72-0.48,1.41-1.01,2.15-1.45c1.76-1.03,3.45-0.88,4.51,1.19
			c0.14,0.28,0.34,0.52,0.46,0.81c0.62,1.5,1.39,2.88,2.61,4.01c0.72,0.67,0.42,1.58-0.53,1.83c-0.94,0.24-1.92,0.16-2.65-0.48
			c-0.78-0.68-1.41-1.53-2.07-2.34C183.52,114.4,183.19,113.82,182.74,113.15z"/>
		<path fill="#FFFFFF" d="M136.02,108.38c0.57,0.65,1.05,1.27,1.61,1.81c0.49,0.47,1.09,0.82,1.61,1.25
			c1.82,1.49,2.22,3.71,0.9,5.63c-1.35,1.96-3.06,3.57-5.11,4.8c-0.21,0.13-0.43,0.25-0.66,0.33c-0.5,0.19-1.06,0.21-1.33-0.28
			c-0.21-0.38-0.27-0.93-0.19-1.37c0.08-0.39,0.42-0.75,0.7-1.08c0.88-1.04,1.79-2.05,2.68-3.08c0.44-0.51,0.86-1.04,1.27-1.55
			c-0.24-0.82-0.94-1.05-1.43-1.49c-1.01-0.9-2.05-1.79-2.96-2.78c-0.87-0.93-0.91-2.16-0.71-3.35c0.31-1.88,2.75-3.29,4.61-2.72
			c0.94,0.29,1.23,1.41,0.55,2.28C137.14,107.32,136.62,107.77,136.02,108.38z"/>
		<path fill="#FFFFFF" d="M107.84,106.34c-0.66-0.1-1.12-0.15-1.58-0.24c-1.55-0.31-2.74,0.18-3.75,1.42
			c-1.82,2.23-2.68,4.85-3.34,7.57c-0.16,0.66-0.25,1.34-0.39,2c-0.18,0.84-0.58,1.18-1.36,1.22c-0.86,0.04-1.71-0.47-1.92-1.16
			c-0.04-0.12-0.05-0.24-0.06-0.37c-0.14-2.1-0.3-4.19-0.39-6.29c-0.06-1.35,0.24-1.83,1.59-2.07c1.07-0.19,1.58-0.77,2.09-1.6
			c0.79-1.29,1.87-2.31,3.25-2.97c2.08-1,4.25-0.44,5.57,1.45C107.7,105.52,107.71,105.84,107.84,106.34z"/>
		<path fill="#FFFFFF" d="M129.1,111.71c-0.15,0.58-0.21,0.94-0.34,1.28c-0.58,1.62-0.58,3.26-0.23,4.91
			c0.01,0.06,0.03,0.12,0.04,0.18c0.06,0.55,0.22,1.12-0.38,1.5c-0.56,0.36-1.54,0.26-2.05-0.28c-0.33-0.35-0.59-0.79-0.79-1.23
			c-0.93-2.1-0.69-4.21,0.1-6.28c0.18-0.49,0.59-0.94,1.01-1.27c0.49-0.39,1.17-0.6,1.71-0.13
			C128.6,110.76,128.85,111.33,129.1,111.71z"/>
		<path fill="#FFFFFF" d="M127.39,104.05c1.01,0.04,1.71,0.78,1.71,1.79c0,0.9-0.73,1.54-1.72,1.5c-0.95-0.04-2-1.08-1.9-1.9
			C125.57,104.68,126.47,104.02,127.39,104.05z"/>
		<path fill="#EF3D23" d="M86.9,131.33c0.21,0.2,0.31,0.28,0.52,0.47c-0.12,1.42-0.24,2.84-0.36,4.27
			C87,134.49,86.95,132.91,86.9,131.33z M73.6,154.87c0,0,0-0.51,0-1.4c0-0.44,0-0.97-0.01-1.58s-0.01-1.29-0.02-2.02
			c-0.01-0.37-0.01-0.75-0.02-1.14c-0.01-0.39-0.01-0.8-0.02-1.21c-0.01-0.41-0.02-0.84-0.03-1.26c-0.01-0.43-0.02-0.86-0.03-1.3
			c-0.13-5.09-0.3-10.19-0.38-15.29c-0.44-2.13,3.43-2.02,4.57-2.02c8.46-0.12,16.9-0.76,25.35-0.97c0.71-0.02,0.97,0.23,0.75,0.86
			c-0.68,4.18,0.12,8.9,0.31,13.13c0.19,4.39,0.31,8.78,0.29,13.17c-0.02,1.65-1.48,3.18-3.17,3.09c-5.31-0.1-10.61-0.34-15.91-0.51
			c-0.46-0.01-0.91-0.03-1.36-0.04c-0.45-0.01-0.9-0.03-1.32-0.04c-0.43-0.01-0.86-0.02-1.26-0.03c-0.41-0.01-0.81-0.02-1.2-0.03
			c-0.77-0.02-1.46-0.03-2.1-0.05c-0.64-0.01-1.2-0.02-1.67-0.03c-0.93-0.02-1.51-0.02-1.51-0.02
			C74.04,156.16,73.6,155.58,73.6,154.87z M80.08,129.16c-1.04,0.01-2.07,0.01-3.11,0.01c-0.77,0-1.38,0.42-1.36,1.28
			c0.02,1.01,0.04,2.03,0.07,3.04c0.02,0.78,0.65,1.35,1.43,1.35c1.04,0,2.08,0.01,3.12,0.01c0.75,0,1.37-0.58,1.35-1.35
			c-0.03-1.02-0.06-2.03-0.08-3.05C81.47,129.59,80.82,129.15,80.08,129.16z M101.62,143.04c-0.04-0.95-0.05-1.41-0.09-2.37
			c-0.95,0-1.42,0-2.37,0c-0.95,0-1.42,0-2.37,0c0.82,0.79,1.64,1.58,2.46,2.37c-2.06-0.01-4.12-0.01-6.18-0.03
			c-0.03-0.97-0.07-1.95-0.11-2.92c0.01-1.45,1.16-2.83,2.69-2.79c1.49-0.01,2.99-0.02,4.48-0.02c0.69,0,1.22-0.57,1.18-1.24
			c-0.09-2.04-0.18-4.07-0.25-6.11c-0.02-0.71-0.58-1.2-1.27-1.19c-0.72,0.01-1.08,0.02-1.8,0.03c-0.98,0.02-1.96,0.04-2.94,0.06
			c-0.51,0.01-0.76,0.02-1.27,0.03c-0.68,0.02-1.22,0.49-1.2,1.21c0.03,1.07,0.05,1.59,0.08,2.58c0.03,0.75,0.04,1.13,0.07,1.91
			c0.12,1.54-1.26,2.72-2.69,2.79c-0.98,0.01-1.96,0.01-2.94,0.02c-0.02-0.52-0.03-0.78-0.05-1.28c-0.06-1.58-0.11-3.16-0.16-4.74
			c0.82,0.74,1.63,1.51,2.43,2.28c-0.05-1.55-0.11-3.1-0.13-4.65c-0.94,0.02-1.42,0.04-2.35,0.06c-0.92,0.02-1.84,0.05-2.75,0.07
			c0.03,1.86,0.09,3.73,0.15,5.59c0.11,1.52-1.29,2.64-2.68,2.7c-0.28,0-0.41,0-0.69,0c-1.7,0-3.39-0.01-5.09-0.03
			c0.03,0.89,0.05,1.77,0.08,2.66c0.03,0.91,0.04,1.37,0.07,2.28c1.59,0.02,3.17,0.04,4.76,0.05c-0.82-0.76-1.63-1.54-2.45-2.31
			c2.06,0.02,4.12,0.02,6.19,0.02c0.03,0.96,0.07,1.91,0.1,2.87c0.12,1.54-1.33,2.65-2.74,2.7c-1.5-0.02-3.01-0.03-4.51-0.05
			c-0.14,0-0.27,0.02-0.38,0.06c-0.46,0.15-0.85,0.59-0.84,1.12c0.03,1.55,0.06,3.1,0.07,4.65c0,0.46,0.01,0.7,0.01,1.16
			c0,0.66,0.56,1.2,1.25,1.21c2.03,0.04,4.06,0.08,6.08,0.13c0.69,0.02,1.25-0.51,1.25-1.18c0-1.45-0.02-2.9-0.05-4.35
			c0.04-1.44,1.24-2.78,2.75-2.7c0.99,0.01,1.97,0.02,2.96,0.04c0.05,2.02,0.09,4.04,0.1,6.06c-0.8-0.79-1.6-1.58-2.4-2.38
			c0.01,0.93,0.02,1.39,0.03,2.32c0.01,0.93,0.01,1.39,0,2.32c0.96,0.03,1.42,0.04,2.37,0.07c0.93,0.03,1.85,0.06,2.78,0.09
			c0.01-1.88-0.01-3.77-0.04-5.65c-0.09-1.52,1.31-2.77,2.77-2.76c1.91,0.02,3.82,0.03,5.73,0.05
			C101.68,144.9,101.65,143.97,101.62,143.04z M101.79,149.87c-0.01-0.78-0.65-1.41-1.42-1.41c-1.04-0.01-2.08-0.02-3.12-0.04
			c-0.77-0.01-1.39,0.6-1.38,1.37c0.01,1.03,0.02,2.06,0.02,3.09c0,0.77,0.62,1.4,1.39,1.42c1.04,0.02,2.08,0.05,3.12,0.07
			c0.77,0.01,1.4-0.6,1.41-1.38C101.81,151.95,101.8,150.91,101.79,149.87z M86.9,131.33c0.21,0.2,0.31,0.28,0.52,0.47
			c-0.12,1.42-0.24,2.84-0.36,4.27C87,134.49,86.95,132.91,86.9,131.33z"/>
		<g>
			<path fill="#FDBA24" d="M91.04,143.7c-0.04-1.07-0.07-2.13-0.11-3.2c-1.08,0-2.17,0-3.25,0c0.04,1.06,0.07,2.12,0.11,3.18
				C88.87,143.69,89.95,143.69,91.04,143.7z"/>
			<path fill="#FDBA24" d="M97.79,150.53c0.01,0.67,0.01,1,0.01,1.67c0,0.11,0.09,0.2,0.2,0.21c0.67,0.01,1.01,0.02,1.68,0.03
				c0.11,0,0.2-0.09,0.2-0.2c0-0.67,0-1.01-0.01-1.68c0-0.11-0.09-0.2-0.21-0.21c-0.67-0.01-1.01-0.01-1.68-0.02
				C97.88,150.33,97.79,150.42,97.79,150.53z"/>
			<path fill="#FDBA24" d="M82.2,152.35c-0.01-1.05-0.02-2.1-0.04-3.14c-1.09-0.02-2.19-0.03-3.28-0.05
				c0.02,1.04,0.03,2.09,0.04,3.13C80.02,152.31,81.11,152.33,82.2,152.35z"/>
			<path fill="#FDBA24" d="M77.53,131.2c0.01,0.68,0.02,1.04,0.04,1.7c0,0.11,0.1,0.2,0.21,0.2c0.68,0,1.05,0,1.76,0
				c0.12,0,0.21-0.09,0.21-0.2c-0.02-0.66-0.03-1.02-0.04-1.71c0-0.11-0.1-0.2-0.22-0.2c-0.7,0-1.07,0-1.75,0
				C77.62,130.99,77.53,131.08,77.53,131.2z"/>
			<path fill="#FDBA24" d="M99.69,134.76c-0.04-1.09-0.09-2.18-0.13-3.26c-1.08,0.02-2.16,0.03-3.24,0.05
				c0.04,1.08,0.08,2.16,0.12,3.25C97.53,134.78,98.61,134.77,99.69,134.76z"/>
		</g>
		<path fill="#53BA65" d="M147.23,158.51c-0.69-0.04-1.26-0.12-1.28-0.64c-0.03-0.7-0.03-1.33-0.05-2.24
			c-0.15-8.01,0.02-15.99-0.08-24c-0.09-1.71,1.42-3.04,3.08-2.97c4.4,0.22,8.8,0.36,13.19,0.47c4.26,0.11,8.92-0.28,13.16,0.63l0,0
			c0.66,0.25,0.95,1.14,0.96,1.83c0.08,8.16-0.34,16.27-0.27,24.43c0.25,1.92-3.27,1.75-4.42,1.75
			C163.4,157.95,155.42,158.91,147.23,158.51z M152.9,131.4c-1.04-0.04-2.09-0.08-3.13-0.13c-0.77-0.04-1.39,0.56-1.39,1.33
			c0.01,1.04,0.01,2.09,0.01,3.13c0,0.78,0.63,1.44,1.4,1.47c1.04,0.04,2.08,0.08,3.11,0.11c0.77,0.02,1.4-0.59,1.4-1.36
			c0-1.04,0-2.07,0-3.11C154.31,132.08,153.67,131.43,152.9,131.4z M173.71,145.58c0.03-0.89,0.04-1.36,0.07-2.25
			c-0.94-0.03-1.43-0.03-2.35-0.04c-0.1,0-0.15,0-0.25,0c-0.84,0-1.25,0-2.1,0c0.76,0.76,1.52,1.52,2.28,2.27
			c-1.64,0-3.28,0.02-4.91,0.05c-0.48,0.01-0.71,0.01-1.19,0.02c0.02-0.96,0.05-1.91,0.07-2.87c-0.01-1.53,1.37-2.72,2.85-2.74
			c1.5,0,3,0.01,4.51,0.04c0.68,0.01,1.22-0.51,1.24-1.15c0.01-0.48,0.02-0.73,0.04-1.22c0.03-0.94,0.05-1.88,0.07-2.83
			c0.01-0.69,0.02-1.04,0.03-1.73c0.01-0.66-0.5-1.21-1.19-1.23c-0.19-0.01-0.29-0.01-0.51-0.02c-1.87-0.06-3.75-0.11-5.62-0.14
			c-0.68-0.01-1.24,0.52-1.24,1.19c-0.01,1.46-0.03,2.91-0.06,4.37c-0.04,1.48-1.33,2.78-2.84,2.74c-0.97,0-1.95,0.01-2.92,0.01
			c0.03-2.03,0.06-4.06,0.07-6.1c0.78,0.79,1.56,1.58,2.34,2.36c0.01-0.93,0.02-1.39,0.02-2.33c0.01-0.94,0.01-1.4,0-2.33
			c-0.95-0.02-1.41-0.03-2.37-0.05c-0.93-0.02-1.85-0.04-2.78-0.07c0.01,1.88,0.01,3.76-0.01,5.63c-0.03,1.52-1.32,2.9-2.9,2.82
			c-1.89-0.04-3.77-0.1-5.66-0.19c0,0.93-0.01,1.86-0.01,2.79c-0.01,0.96-0.01,1.43-0.02,2.38c1.57,0.07,3.14,0.12,4.71,0.15
			c-0.78-0.81-1.56-1.62-2.33-2.43c2.05,0.06,4.09,0.09,6.13,0.11c-0.01,0.98-0.03,1.96-0.04,2.93c-0.03,1.47-1.27,2.85-2.81,2.8
			c-1.48-0.01-2.96-0.04-4.44-0.09c-0.68-0.02-1.23,0.5-1.23,1.21c0,2.06,0.02,4.12,0.06,6.18c0.01,0.62,0.57,1.18,1.24,1.2
			c0.47,0.01,0.71,0.02,1.19,0.03c1.59,0.02,3.17,0.02,4.76,0c0.54-0.01,0.99-0.49,1.15-0.85c0.04-0.09,0.06-0.2,0.06-0.32
			c-0.02-1.52-0.03-3.03-0.02-4.54c-0.05-1.54,1.3-2.81,2.78-2.85c0.97-0.02,1.94-0.04,2.91-0.07c-0.03,2.02-0.05,4.04-0.05,6.06
			c-0.78-0.74-1.55-1.49-2.32-2.25c0,1.56,0.02,3.12,0.01,4.67c0.92-0.04,1.39-0.06,2.31-0.11c0.9-0.05,1.8-0.09,2.71-0.14
			c0.01-1.83,0-3.66,0.02-5.49c-0.03-1.57,1.37-2.85,2.88-2.9c1.86-0.03,3.72-0.05,5.59-0.03
			C173.65,147.35,173.68,146.46,173.71,145.58z M173.54,152.09c0.01-0.75-0.56-1.34-1.34-1.34c-1.03,0-2.05,0.02-3.08,0.04
			c-0.76,0.02-1.39,0.62-1.4,1.38c-0.01,1.03-0.02,2.07-0.02,3.1c0,0.7,0.61,1.22,1.37,1.19c1.02-0.03,2.03-0.06,3.05-0.08
			c0.77-0.01,1.38-0.55,1.38-1.23C173.52,154.13,173.53,153.11,173.54,152.09z"/>
		<g>
			<path fill="#FDBA24" d="M162.64,145.73c0.02-1.01,0.04-2.01,0.06-3.02c-1.02,0.01-2.04,0.02-3.06,0.03
				c-0.02,1.02-0.03,2.03-0.05,3.05C160.61,145.77,161.63,145.75,162.64,145.73z"/>
			<path fill="#FDBA24" d="M169.69,152.81c-0.01,0.61-0.01,0.9-0.01,1.67c0,0.13,0.09,0.22,0.2,0.22c0.64-0.02,1.01-0.03,1.64-0.04
				c0.11,0,0.19-0.1,0.19-0.23c0-0.76,0.01-1.05,0.01-1.66c0-0.1-0.09-0.19-0.19-0.19c-0.63,0.01-1,0.01-1.64,0.03
				C169.78,152.62,169.69,152.71,169.69,152.81z"/>
			<path fill="#FDBA24" d="M154.18,154.36c-0.01-1.03-0.01-2.06-0.01-3.09c-1.01,0-2.03-0.02-3.04-0.04c0,1.03,0.01,2.07,0.02,3.1
				C152.16,154.35,153.17,154.36,154.18,154.36z"/>
			<path fill="#FDBA24" d="M150.39,133.43c0,0.67,0,1.01,0.01,1.68c0,0.11,0.09,0.21,0.2,0.21c0.67,0.03,1.01,0.04,1.68,0.06
				c0.11,0,0.2-0.08,0.2-0.2c0-0.67,0-1.01,0-1.68c0-0.11-0.09-0.21-0.21-0.21c-0.67-0.02-1.01-0.04-1.68-0.07
				C150.48,133.23,150.39,133.31,150.39,133.43z"/>
			<path fill="#FDBA24" d="M171.32,137.43c0.03-0.99,0.05-1.97,0.06-2.96c-1.03-0.02-2.07-0.04-3.1-0.06
				c-0.02,0.99-0.03,1.99-0.05,2.98C169.26,137.4,170.29,137.41,171.32,137.43z"/>
		</g>
		<path fill="#FFFFFF" d="M131.73,155.67c-0.03-1.22-0.63-4.92,0.43-5.9c1-0.93,4.79,0.04,5.9,0.08c-0.06,1.15,0.57,5.06-0.49,5.98
			C136.48,156.78,132.96,155.78,131.73,155.67z M135.94,153.6c0.12-1.6-0.09-1.91-1.66-1.95c-0.26-0.01-0.48,0.2-0.5,0.47
			c-0.12,1.54,0.04,1.93,1.66,1.96C135.7,154.09,135.92,153.9,135.94,153.6z"/>
		<path fill="#FFFFFF" d="M111.63,133.88c0.05-1.27-0.62-4.73,0.42-5.76c1.01-1,4.85-0.16,6.01-0.13c-0.03,1.2,0.61,4.79-0.45,5.78
			C116.53,134.76,112.9,133.9,111.63,133.88z M115.95,131.57c0.12-1.55-0.21-1.76-1.7-1.73c-0.27,0.01-0.5,0.21-0.52,0.46
			c-0.11,1.5,0.17,1.76,1.71,1.73C115.71,132.02,115.93,131.82,115.95,131.57z"/>
		<path fill="#FDBA24" d="M135.23,146.87c-0.53-0.01-1.05-0.05-1.58-0.09c0,0-0.01,0-0.01,0c-1.1-0.08-2.2-0.16-3.29-0.26
			c-0.24-0.02-0.48-0.04-0.73-0.06c-0.22-0.02-0.4,0.15-0.41,0.37c-0.05,1.21-0.1,2.44-0.12,3.63c-0.02,1.22,0.15,3.88-1.1,4.59
			c-0.68,0.39-1.6,0.36-2.52,0.21c-1.12-0.19-1.68-0.73-1.86-1.06c-0.05-0.09-0.05-0.53-0.05-0.7c0.01-0.57,0.07-1.48,0.1-2.24
			c0.02-0.5,0.62-0.72,0.95-0.32c0.32,0.39,0.49,0.57,0.82,0.92c0.25,0.26,0.68,0.14,0.68-0.22c0.01-0.99,0.08-1.98,0.16-2.96
			c0.05-0.66,0.23-1.54-0.22-2.15c-0.53-0.73-1.63-0.56-2.38-0.64c-0.82-0.08-1.75-0.41-2.53-0.12c-0.98,0.36-0.93,1.55-0.93,2.4
			c0,1.44-0.04,3.02-0.1,4.47c-0.04,0.98-0.97,1.8-1.97,1.73c-1.45-0.1-5.4,0.5-6.58-0.77c-1.25-1.33-0.35-5.07-0.29-6.68
			c0.03-0.86,0.8-1.61,1.7-1.58c1.28,0.04,2.57,0.1,3.86,0.16c0.61,0.03,1.23,0.06,1.81,0.14c0.93,0.11,1.94-0.34,1.91-1.42
			c-0.02-0.59-0.06-1.21-0.06-1.81c0-0.57,0.07-1.14-0.02-1.71c-0.16-1.06-1.09-1.11-2-1.12c-1.16-0.02-2.33-0.02-3.49-0.06
			c-0.36-0.01-0.56,0.4-0.32,0.66c0.36,0.38,0.58,0.57,0.93,0.96c0.29,0.32,0.07,0.83-0.38,0.82c-0.76-0.02-2.95,0.33-3.61-0.36
			c-0.57-0.59-0.13-2.21-0.08-2.89c0.09-1.24,1.16-2.13,2.37-2.08c1.45,0.06,5.06,0.97,6.31-0.18c1.23-1.12,0.61-4.73,0.63-6.11
			c0.02-1.23,1.06-2.18,2.28-2.18c0.7,0,2.45-0.31,3.03,0.27c0.65,0.65,0.16,2.84,0.12,3.56c-0.02,0.46-0.6,0.66-0.92,0.32
			c-0.35-0.37-0.53-0.56-0.88-0.93c-0.25-0.26-0.69-0.1-0.7,0.25c-0.02,0.93-0.09,1.86-0.16,2.78c-0.05,0.55-0.13,1.13-0.06,1.67
			c0.13,0.97,1.06,1.06,1.89,1.14c1.01,0.09,2.03,0.17,3.04,0.22c0.97,0.05,1.23-0.64,1.22-1.48c-0.01-0.57,0.02-1.14,0.03-1.71
			c0.01-0.82,0.04-1.67,0.03-2.46c-0.01-0.82-0.03-1.98,0.43-2.7c0.4-0.62,1.28-0.67,1.96-0.66c1.55,0.01,3.15,0.16,4.71,0.24
			c0.73,0.04,1.47,0.06,2.21,0.07c-0.18,2.63,0.63,6.35-0.63,8.48c-0.36,0.61-1.31,0.66-1.99,0.66c-1.24-0.02-2.48-0.12-3.72-0.27
			c-0.7-0.09-1.49-0.22-2.18,0.03c-0.85,0.3-0.99,0.98-1.03,1.78c-0.03,0.56-0.08,1.14-0.11,1.71c-0.03,0.56-0.08,1.19,0.08,1.74
			c0.1,0.36,0.34,0.59,0.7,0.7c0.53,0.16,1.11,0.14,1.65,0.16c0.96,0.02,1.92,0.07,2.88,0.1c0.18,0.01,0.38-0.01,0.5-0.17
			c0.11-0.15,0.09-0.32-0.01-0.47c-0.25-0.37-0.6-0.69-0.9-1.02c-0.3-0.33-0.05-0.86,0.39-0.85c0.63,0.02,1.26,0.03,1.88,0.05
			c0.39,0.01,0.79,0.01,1.17,0.08c0.73,0.13,0.74,0.94,0.73,1.51c-0.03,0.88-0.1,2.21-0.8,2.9c-0.34,0.34-0.78,0.65-1.23,0.83
			C136.04,146.86,135.63,146.88,135.23,146.87z M114.96,148.25c-0.49-0.01-0.87,0.33-0.9,0.81c-0.12,2.15,0.19,2.42,2.34,2.45
			c0.48,0.01,0.88-0.31,0.9-0.8C117.41,148.55,117.13,148.29,114.96,148.25z M135.41,134.87c0.27,0.01,0.5-0.21,0.52-0.48
			c0.18-2.7,0.01-2.85-2.67-2.91c-0.27-0.01-0.5,0.21-0.52,0.48C132.58,134.62,132.72,134.82,135.41,134.87z M126.6,140.99
			c0-0.47-0.37-0.89-0.84-0.94c-2.18-0.22-2.48,0.01-2.49,2.2c0,0.47,0.37,0.88,0.85,0.93C126.29,143.42,126.58,143.19,126.6,140.99
			z"/>
	</g>
	<g>
		<rect x="243.73" y="39.43" fill="#FFFFFF" width="120.01" height="120.01"/>
	</g>
</g>
<g>
	<path fill="#257C9B" d="M116.96,473.29c-28.86,0.03-47.76,23.62-47.45,47.31c-0.01,26.19,21.2,47.5,47.31,47.53
		c26.27,0.03,47.57-21.23,47.68-47.39C164.61,496.26,145.27,473.25,116.96,473.29z M116.75,565.66
		c-24.85-0.08-45.05-20.35-44.98-45.13c0.07-24.72,20.46-44.95,45.26-44.93c24.93,0.03,45.1,20.27,45.05,45.21
		C162.03,545.76,141.83,565.75,116.75,565.66z"/>
	<path fill="#10314F" d="M303.07,547.85c0,0.77-0.22,1.13-1.08,1.22c-4.97,0.49-4.96,0.51-4.97-4.38c0-2.52-0.01-5.04-0.03-7.56
		c0-0.04-0.06-0.07-0.26-0.28c-1.36,2.28-2.69,4.5-4.04,6.72c-1.08,1.78-3.72,1.76-4.81-0.04c-1.31-2.19-2.61-4.4-4.24-6.53
		c0,3.42-0.06,6.85,0.03,10.26c0.03,1.37-0.32,1.84-1.76,1.82c-4.31-0.05-4.31,0.02-4.31-4.32c0-6.04,0.03-12.08-0.03-18.12
		c-0.02-1.39,0.29-1.8,1.79-1.96c3.04-0.33,4.85,0.65,6.14,3.48c1.27,2.8,3.09,5.35,4.82,8.25c1.99-3.35,3.84-6.52,5.75-9.66
		c0.43-0.71,0.58-1.86,1.59-1.94c1.64-0.12,3.29-0.06,4.93,0.05c0.59,0.04,0.47,0.72,0.47,1.17
		C303.07,533.3,303.06,540.57,303.07,547.85z"/>
	<path fill="#123351" d="M200.33,491.88c-6.98,0-12.55,5.61-12.57,12.67c-0.02,7.09,5.66,12.82,12.68,12.78
		c6.98-0.04,12.58-5.68,12.59-12.7C213.05,497.52,207.42,491.87,200.33,491.88z M198.79,511.41c-1.59-0.34-2.82-1.2-3.58-2.6
		c-1.52-2.78-1.53-5.65-0.01-8.41c1.15-2.1,3.11-2.88,5.48-2.8c2.34,0.08,4.02,1.12,5.11,3.15c0.66,1.22,0.84,2.55,0.87,3.51
		C206.63,509.53,203.3,512.38,198.79,511.41z"/>
	<path fill="#123351" d="M270.54,549.05c-4,0-7.99-0.07-11.98,0.03c-1.64,0.05-2.27-0.34-2.2-2.1c0.14-3.39,0.05-6.8,0.05-10.19
		c0-3.52,0.04-7.04-0.03-10.55c-0.02-1.16,0.36-1.52,1.51-1.51c5.05,0.05,10.11,0.05,15.16,0c1.13-0.01,1.51,0.31,1.52,1.48
		c0.04,4.08,0.08,4.08-4.03,4.08c-2.17,0-4.35,0.09-6.52-0.03c-1.51-0.09-1.4,0.77-1.37,1.75c0.03,0.92-0.23,1.89,1.33,1.83
		c2.75-0.1,5.52,0.02,8.28-0.05c1.16-0.03,1.65,0.23,1.65,1.53c-0.01,3.95,0.04,3.95-3.98,3.95c-1.94,0-3.88,0.06-5.82-0.02
		c-1.19-0.06-1.59,0.39-1.46,1.52c0.05,0.46,0.06,0.94,0,1.4c-0.15,1.12,0.34,1.39,1.4,1.37c2.99-0.06,5.99,0.01,8.98-0.03
		c1.1-0.02,1.54,0.26,1.55,1.47C274.6,549.05,274.65,549.05,270.54,549.05z"/>
	<path fill="#143351" d="M319.37,524.77c-3.82-0.06-7.63,0.03-11.45-0.04c-1.3-0.03-1.58,0.47-1.56,1.64
		c0.06,3.45,0.02,6.91,0.02,10.37v7.74c0,4.84,0,4.81,4.93,4.59c1.01-0.04,1.33-0.38,1.3-1.35c-0.05-1.82,0.03-3.64-0.03-5.45
		c-0.03-0.92,0.28-1.23,1.2-1.21c1.93,0.06,3.88,0.08,5.81-0.01c4.69-0.2,8.02-3.74,7.95-8.35
		C327.46,528.21,324.04,524.84,319.37,524.77z M318.43,535.87c-0.87,0.09-1.75,0.02-2.63,0.02c-3.21,0.02-3.21,0.02-3.2-3.19
		c0.02-2.78,0.02-2.78,2.77-2.77c1,0,2-0.05,2.99,0.02c1.68,0.11,2.73,1.21,2.77,2.81C321.18,534.41,320.1,535.71,318.43,535.87z"/>
	<path fill="#123351" d="M329.58,514.61c-2.35-6.18-4.71-12.36-7.04-18.54c-1.48-3.92-1.46-3.89-5.58-3.89
		c-1.1,0-1.63,0.34-2.03,1.41c-2.64,7.08-5.36,14.12-8.06,21.17c-0.83,2.15-0.83,2.15,1.5,2.16c3.93,0,3.96,0.01,5.36-3.66
		c0.34-0.91,0.8-1.29,1.79-1.24c1.52,0.08,3.07,0.17,4.57-0.02c1.82-0.23,2.52,0.55,3.08,2.18c1.11,3.18,0.27,2.69,3.86,2.74h0.88
		C330.46,516.91,330.45,516.92,329.58,514.61z M319.65,507.09c-3.91,0.34-3.95,0.32-2.76-3.32c0.39-1.2,0.81-2.4,1.22-3.6h0.35
		c0.63,1.95,1.24,3.9,1.9,5.83C320.61,506.74,320.52,507.01,319.65,507.09z"/>
	<path fill="#10314F" d="M222.78,499.65c0.02,1.31,0.26,1.88,1.74,1.81c2.81-0.12,5.64,0.01,8.46-0.05c1.1-0.03,1.54,0.26,1.56,1.46
		c0.06,4.11,0.11,4.11-4.01,4.11c-2.12,0-4.23,0.05-6.34-0.02c-1.11-0.04-1.41,0.38-1.38,1.42c0.06,2.35-0.03,4.69,0.04,7.04
		c0.03,1.15-0.38,1.5-1.52,1.52c-4.87,0.09-4.86,0.13-4.86-4.67v-7.74c0-3.63,0.03-7.27-0.02-10.9c-0.02-1.05,0.3-1.45,1.39-1.44
		c5.52,0.04,11.05,0.03,16.57,0.01c0.93-0.01,1.33,0.23,1.37,1.27c0.15,4.3,0.19,4.3-4.13,4.3c-2.35,0-4.71,0.1-7.05-0.04
		C223.03,497.64,222.77,498.27,222.78,499.65z"/>
	<path fill="#10314F" d="M245.6,499.65c0.01,1.76,0.75,1.84,2.09,1.8c2.76-0.07,5.53,0.02,8.29-0.05c1.1-0.02,1.37,0.37,1.39,1.42
		c0.08,4.16,0.11,4.16-4.11,4.16c-1.99,0-3.99,0.06-5.99-0.02c-1.19-0.05-1.67,0.27-1.61,1.55c0.09,2.28-0.02,4.57,0.04,6.85
		c0.03,1.09-0.23,1.55-1.45,1.58c-4.94,0.11-4.94,0.15-4.94-4.79v-7.56c0-3.57,0.04-7.15-0.02-10.72c-0.01-1.15,0.21-1.7,1.53-1.69
		c5.46,0.07,10.93,0.06,16.39,0.01c1.18-0.01,1.46,0.41,1.47,1.53c0.02,4.05,0.06,4.05-4.03,4.05c-2.29,0-4.58,0.05-6.87-0.03
		C246.37,497.7,245.59,497.81,245.6,499.65z"/>
	<path fill="#123351" d="M210.92,547.27c-2.47-6.32-4.86-12.68-7.28-19.03c-1.32-3.49-1.32-3.42-4.95-3.52
		c-1.4-0.04-2.07,0.38-2.56,1.71c-2.41,6.54-4.93,13.04-7.42,19.55c-1.32,3.46-1.48,3.05,2.31,3.07c0.94-0.38,2.76,0.88,3.11-1.06
		c0.64-3.48,2.75-4.3,5.88-3.79c0.68,0.11,1.41,0.08,2.11,0c1.04-0.11,1.54,0.3,1.91,1.3c1.34,3.57,1.38,3.56,5.26,3.55
		c0.12,0,0.24-0.01,0.35,0C211.16,549.24,211.49,548.72,210.92,547.27z M201.47,539.23c-1.28,0.02-2.58,0.07-3.85-0.04
		c-0.48-0.04-0.17-0.57-0.07-0.87c0.61-1.92,1.25-3.84,2.02-6.19c0.79,2.41,1.44,4.39,2.09,6.38c0.02,0.06,0.05,0.11,0.06,0.17
		C201.76,538.92,201.77,539.22,201.47,539.23z"/>
	<path fill="#123351" d="M293.17,494.17c-0.04,0.11-0.06,0.23-0.09,0.34c-0.35,1.17-0.38,2.67-1.14,3.44
		c-0.78,0.79-2.16-0.23-3.31-0.27c-1.64-0.05-3.28-0.19-4.9,0.23c-3.39,0.89-5.26,3.33-5.18,6.8c0.07,3.52,2.13,5.98,5.6,6.64
		c2.17,0.41,4.34,0.32,6.46-0.27c1.11-0.31,1.68-0.01,1.81,1.13c0.03,0.23,0.08,0.46,0.14,0.69c0.82,3.45,0.82,3.45-2.63,4.07
		c-3.3,0.59-6.55,0.52-9.71-0.72c-5.58-2.18-8.67-7.54-7.89-13.65c0.71-5.45,5.49-9.92,11.37-10.58c0.93-0.11,1.87-0.12,2.81-0.18
		c1.94,0.08,3.86,0.29,5.74,0.82C293.09,492.9,293.48,493.29,293.17,494.17z"/>
	<path fill="#143351" d="M351.38,526.28c0,4.01,0.06,4.01-3.95,4.01c-3.76,0-3.76,0-3.76,3.71c0,4.52-0.03,9.03,0.02,13.55
		c0.01,1.13-0.32,1.51-1.49,1.53c-4.81,0.07-4.81,0.11-4.81-4.73c0-4.1-0.05-8.21,0.03-12.31c0.03-1.32-0.24-1.91-1.7-1.78
		c-1.58,0.13-3.17,0-4.76,0.04c-0.91,0.02-1.2-0.33-1.25-1.24c-0.25-4.31-0.27-4.31,3.96-4.31h6.88c3.06,0,6.11,0.04,9.17-0.02
		C350.88,524.71,351.38,524.97,351.38,526.28z"/>
	<path fill="#143351" d="M224.82,530.29c-3.68,0-3.68,0-3.68,3.6c-0.01,4.52-0.04,9.03,0.02,13.55c0.01,1.19-0.31,1.63-1.59,1.64
		c-4.73,0.03-4.73,0.08-4.73-4.62c0-4.16-0.07-8.33,0.04-12.49c0.04-1.44-0.44-1.81-1.78-1.7c-1.41,0.1-2.82,0.02-4.23,0.02
		c-0.35,0-0.83,0.12-1.04-0.06c-1.5-1.3-0.38-3.03-0.65-4.56c-0.17-0.95,0.64-0.92,1.3-0.92c3.18,0.01,6.35,0,9.52,0
		c3.12,0,6.23,0.04,9.35-0.02c1.07-0.02,1.4,0.32,1.42,1.4C228.86,530.29,228.9,530.29,224.82,530.29z"/>
	<path fill="#10314F" d="M249.43,530.29c-3.71,0-3.71,0-3.71,3.76c0,4.45-0.05,8.9,0.03,13.35c0.02,1.33-0.39,1.69-1.7,1.68
		c-4.57-0.03-4.57,0.02-4.57-4.59c0-4.28-0.03-8.56,0.03-12.83c0.01-1.08-0.31-1.45-1.39-1.4c-1.7,0.08-3.41,0-5.11,0.03
		c-0.91,0.02-1.19-0.35-1.24-1.25c-0.23-4.28-0.25-4.28,3.99-4.28h6.87c3.11,0,6.22,0.03,9.33-0.02c1.07-0.02,1.41,0.31,1.43,1.4
		C253.47,530.29,253.51,530.29,249.43,530.29z"/>
	<path fill="#1A3754" d="M347.38,516.92c-4.05,0-8.1-0.05-12.15,0.03c-1.34,0.03-1.72-0.42-1.69-1.71c0.07-3.63,0.02-7.26,0.02-10.9
		c0-3.57,0.03-7.14-0.02-10.71c-0.01-1.04,0.28-1.43,1.39-1.46c5.04-0.15,5.04-0.18,5.04,4.84c0,1.82-0.05,3.64,0.01,5.45
		c0.09,2.91-0.29,5.83,0.2,8.72c2.86,0.35,5.73,0.06,8.59,0.16c0.41,0.01,0.83,0.04,1.23-0.01c1.06-0.13,1.41,0.27,1.42,1.37
		C351.49,516.92,351.53,516.92,347.38,516.92z"/>
	<path fill="#2B4661" d="M176.07,568.02c-1.34-0.01-0.93-1.52-0.93-2.44c-0.02-14.96-0.02-29.91-0.02-44.87V476.2
		c0-0.42,0-0.83,0.01-1.24c0-0.78,0.02-1.71,1.04-1.68c0.88,0.02,0.97,0.86,0.95,1.61c-0.01,0.29,0,0.58,0,0.88
		c0,29.91,0,59.82-0.02,89.73C177.1,566.46,177.57,568.02,176.07,568.02z"/>
	<path fill="#143351" d="M268.78,515.41c0.02,1.14-0.36,1.6-1.52,1.52c-1.17-0.07-2.35-0.07-3.52,0c-1.11,0.07-1.38-0.42-1.38-1.45
		c0.03-7.32,0.03-14.64,0-21.96c0-0.99,0.31-1.38,1.31-1.33c1.23,0.06,2.47,0.06,3.7,0c1.08-0.06,1.43,0.37,1.41,1.43
		c-0.04,3.63-0.01,7.26-0.01,10.9C268.76,508.15,268.73,511.78,268.78,515.41z"/>
	<path fill="#123351" d="M303.07,515.4c0.01,1.14-0.34,1.6-1.51,1.53c-1.22-0.07-2.46-0.05-3.69-0.01
		c-0.92,0.03-1.22-0.37-1.22-1.26c0.02-7.43,0.02-14.87,0-22.3c0-0.82,0.3-1.21,1.13-1.15h0.17c5.09-0.3,5.09-0.3,5.09,4.75v7.55
		C303.04,508.14,303.01,511.77,303.07,515.4z"/>
	<path fill="#6C6B6A" d="M159.28,555.54c-0.63-0.82-1.23-1.28-1.89-1.33c-0.68-0.05-1.22,0.1-1.12-0.88
		c0.03-0.3-0.28-0.46-0.64-0.39c-0.38,0.07-0.62,0.22-0.68,0.66c-0.07,0.54,0.24,1.17-0.42,1.7c-0.85-0.71,0.36-2.33-1.39-2.6
		c2.36-0.81,3.62-0.38,4.5,1.46c0.61-0.62,0.7-2.03,1.38-1.66C159.93,553,159.35,554.24,159.28,555.54z"/>
	<path fill="#D5DDE3" d="M117.03,475.6c-24.8-0.02-45.19,20.21-45.26,44.93c-0.07,24.78,20.13,45.05,44.98,45.13
		c25.08,0.09,45.28-19.9,45.33-44.85C162.13,495.87,141.96,475.63,117.03,475.6z M116.96,564.67c-24.45-0.02-44.2-19.73-44.17-44.07
		c0.03-24.28,19.95-44.06,44.3-43.97c24.4,0.08,44.14,19.87,44.08,44.19C161.11,545.05,141.31,564.69,116.96,564.67z"/>
	<path fill="#EFEFEF" d="M206.66,504.26c-0.03,5.26-3.35,8.11-7.87,7.15c-1.59-0.34-2.82-1.2-3.59-2.61
		c-1.51-2.78-1.52-5.64-0.01-8.4c1.16-2.1,3.11-2.88,5.48-2.8c2.34,0.08,4.02,1.12,5.11,3.15
		C206.45,501.97,206.63,503.3,206.66,504.26z"/>
	<path fill="#E7E8EC" d="M315.8,535.88c-3.21,0.02-3.21,0.02-3.19-3.19c0.01-2.77,0.01-2.77,2.77-2.77c1,0,2-0.04,2.99,0.02
		c1.68,0.11,2.73,1.21,2.77,2.81c0.04,1.65-1.04,2.95-2.7,3.11C317.56,535.95,316.68,535.88,315.8,535.88z"/>
	<path fill="#D5DDE3" d="M318.46,500.17c0.63,1.94,1.24,3.9,1.9,5.83c0.25,0.74,0.16,1.01-0.71,1.08c-3.91,0.35-3.95,0.32-2.76-3.32
		c0.39-1.2,0.81-2.4,1.22-3.6C318.23,500.17,318.35,500.17,318.46,500.17z"/>
	<path fill="#E5E6EA" d="M199.57,532.13c0.79,2.4,1.44,4.39,2.09,6.38c0.02,0.06,0.05,0.11,0.05,0.17c0.04,0.24,0.05,0.54-0.25,0.55
		c-1.29,0.03-2.58,0.08-3.85-0.03c-0.48-0.04-0.17-0.57-0.07-0.87C198.16,536.39,198.8,534.47,199.57,532.13z"/>
	<path fill="#153250" d="M117.09,476.63c-24.35-0.09-44.27,19.69-44.3,43.97c-0.03,24.34,19.72,44.05,44.17,44.07
		c24.35,0.02,44.15-19.62,44.21-43.85C161.23,496.5,141.49,476.71,117.09,476.63z M144.63,500.79c0.57-0.29,0.31-0.78,0.18-1.22
		c-0.29-1.07-0.67-2.13-0.82-3.22c-0.2-1.47,0.92-2.72,2.29-2.72c1.35-0.01,4.33,3.02,4.38,4.41c0.02,0.57-0.43,0.61-0.75,0.82
		c-0.46,0.3-0.73,0.12-1-0.29c-0.55-0.82-1.12-1.63-1.71-2.42c-0.21-0.28-0.52-0.55-0.9-0.37c-0.39,0.19-0.32,0.6-0.24,0.93
		c0.28,1.07,0.56,2.14,0.87,3.21c0.3,1.03-0.01,1.84-0.83,2.47c-0.82,0.63-1.71,0.7-2.64,0.24c-1.81-0.9-2.69-2.52-3.39-4.29
		c-0.23-0.59,0.12-0.83,0.6-1.05c0.53-0.24,0.89-0.16,1.1,0.39c0.37,1,0.9,1.91,1.64,2.68
		C143.72,500.69,144.12,501.05,144.63,500.79z M145.45,520.63c0.01,15.72-12.68,28.42-28.43,28.43c-15.77,0-28.5-12.64-28.52-28.35
		c-0.02-15.71,12.67-28.4,28.44-28.41C132.72,492.28,145.43,504.91,145.45,520.63z M134.66,491.92c0.65,0.84,1.38,1.61,2.33,2.11
		c0.41,0.21,0.91,0.45,1.28,0c0.31-0.37,0.05-0.77-0.17-1.12c-0.57-0.95-1.24-1.86-1.69-2.87c-0.73-1.64,0.41-3.38,2.1-3.37
		c1.2,0.01,4.3,2.08,4.75,3.1c0.24,0.54-0.15,0.74-0.41,1.02c-0.31,0.34-0.61,0.49-1.04,0.09c-0.67-0.65-1.39-1.25-2.14-1.81
		c-0.34-0.26-0.81-0.65-1.23-0.18c-0.32,0.36-0.05,0.77,0.17,1.12c0.49,0.8,1,1.58,1.47,2.39c0.58,0.98,0.72,1.96-0.08,2.92
		c-0.78,0.93-1.79,1.11-2.87,0.78c-1.7-0.52-2.88-1.74-3.94-3.09c-0.47-0.6-0.06-0.93,0.35-1.3
		C134.04,491.25,134.33,491.5,134.66,491.92z M126.73,485.18c1.32-3.72,1.35-3.71,5.11-2.34c0.49,0.18,0.99,0.36,1.49,0.53
		c0.59,0.21,1.09,0.4,0.75,1.23c-0.29,0.72-0.65,0.85-1.34,0.55c-0.8-0.36-1.66-0.59-2.47-0.92c-0.5-0.2-0.87-0.28-1.1,0.36
		c-0.21,0.61-0.15,0.98,0.55,1.18c0.78,0.23,1.53,0.58,2.31,0.84c0.63,0.21,0.81,0.55,0.57,1.19c-0.22,0.6-0.54,0.84-1.19,0.57
		c-0.86-0.35-1.76-0.65-2.38-0.88c-0.98-0.3-0.97,0.33-1.16,0.71c-0.26,0.51-0.14,0.87,0.45,1.07c0.83,0.28,1.64,0.64,2.47,0.91
		c0.64,0.2,1.08,0.4,0.78,1.21c-0.26,0.74-0.68,0.87-1.34,0.56c-0.1-0.05-0.22-0.08-0.32-0.13c-1.56-0.65-3.88-0.67-4.54-1.96
		C124.71,488.57,126.17,486.76,126.73,485.18z M115.58,487.91c0.23-2.15,0.34-4.32,0.55-6.47c0.05-0.52-0.27-1.34,0.55-1.47
		c0.8-0.12,1.57,0.01,2.06,0.93c0.82,1.53,1.79,2.99,2.95,4.9c0.16-1.73,0.32-3.01,0.39-4.3c0.05-0.78,0.24-1.16,1.14-1.11
		c0.92,0.05,1.04,0.5,0.97,1.25c-0.2,2.16-0.36,4.32-0.58,6.47c-0.05,0.51,0.26,1.3-0.63,1.4c-0.71,0.08-1.4-0.03-1.83-0.76
		c-0.79-1.36-1.63-2.7-2.45-4.05c-0.14-0.24-0.2-0.56-0.73-0.6c-0.12,1.41-0.28,2.75-0.35,4.09c-0.04,0.82-0.43,0.93-1.15,0.84
		C115.75,488.93,115.49,488.7,115.58,487.91z M104.51,481.88c0.62-0.25,1.27-0.47,1.94,0.16c1.35,1.28,2.78,2.46,4.5,3.96
		c-0.37-1.73-0.61-3.05-0.95-4.34c-0.19-0.72-0.09-1.07,0.69-1.25c0.77-0.18,1.16-0.07,1.34,0.8c0.45,2.18,1.01,4.33,1.49,6.5
		c0.1,0.47,0.5,1.1-0.17,1.4c-0.61,0.26-1.28,0.54-1.96-0.09c-1.37-1.26-2.8-2.45-4.58-4c0.38,1.77,0.6,3.12,0.97,4.42
		c0.22,0.8-0.06,1.03-0.77,1.18c-0.71,0.16-1.09,0.05-1.26-0.72c-0.46-2.17-1-4.33-1.47-6.5
		C104.17,482.89,103.7,482.2,104.51,481.88z M99.37,484.04c0.46-0.14,1.07-0.84,1.39-0.23c1.3,2.47,2.46,5.01,3.65,7.47
		c-0.08,0.78-0.75,0.72-1.16,0.97c-0.48,0.3-0.75,0-0.94-0.42c-1.06-2.27-2.12-4.54-3.19-6.8C98.91,484.6,98.88,484.2,99.37,484.04z
		 M90.61,489.55c0.59-0.5,0.99-0.4,1.42,0.23c0.79,1.16,1.64,2.28,2.48,3.41c0.79,1.06,1.75,1.38,2.86,0.52
		c1.05-0.8,0.98-1.76,0.25-2.76c-0.88-1.18-1.72-2.37-2.61-3.54c-0.34-0.45-0.44-0.82,0.14-1.12c0.42-0.22,0.84-1,1.31-0.34
		c1.29,1.79,2.95,3.36,3.63,5.54c0.07,0.22,0.06,0.46,0.09,0.69c-0.18,1.82-1.15,3.03-2.82,3.71c-1.61,0.65-3.05,0.23-4.15-1.01
		c-1.07-1.23-1.94-2.64-2.96-3.92C89.71,490.26,90.13,489.95,90.61,489.55z M86.49,493.65c0.44-0.41,0.76-0.38,1.16,0.05
		c0.4,0.42,0.71,0.76,0.16,1.3c-0.5,0.49-0.98,1.02-1.35,1.61c-0.93,1.52-0.53,3.02,0.98,3.89c1.4,0.81,3.08,0.26,3.93-1.18
		c0.57-0.96-0.38-1.04-0.73-1.45c-0.43-0.5-1.49-0.65-0.66-1.73c0.79-1.04,1.27-0.28,1.83,0.14c2.63,1.97,2.67,2.82,0.21,5.15
		c-1.49,1.42-3.2,1.92-5.17,1.11c-1.76-0.72-2.88-2.39-2.86-4.73C84.03,496.33,85.11,494.92,86.49,493.65z M76.1,523.72
		c-0.09-1.02,0.65-1.12,1.29-1.34c1.22-0.43,2.44-0.82,4.11-1.38c-1.85-0.55-3.19-0.96-4.53-1.35c-0.63-0.18-1.02-0.46-1-1.21
		c0.03-0.7,0.47-0.88,1-1.02c2.32-0.62,4.64-1.25,6.97-1.85c0.38-0.1,0.98-0.58,1.1,0.24c0.08,0.61,0.41,1.42-0.67,1.68
		c-1.25,0.31-2.48,0.69-3.84,1.07c1.08,0.8,2.34,0.86,3.45,1.27c0.55,0.2,1.14,0.24,1.2,1.04c0.07,0.93-0.6,1.02-1.2,1.23
		c-1.05,0.36-2.1,0.71-3.39,1.15c1.24,0.73,2.44,0.83,3.57,1.05c1,0.2,1.29,0.74,1.13,1.6c-0.22,1.12-0.98,0.48-1.51,0.37
		c-2.12-0.47-4.22-1-6.34-1.48C76.81,524.64,76.17,524.63,76.1,523.72z M78.06,532.98c0.04-2.49,2.26-4.58,4.85-4.57
		c2.51,0.02,4.62,2.13,4.57,4.59c-0.04,2.5-2.23,4.54-4.85,4.54C80.07,537.53,78.03,535.49,78.06,532.98z M87.93,546.52
		c-0.22,0.71-0.29,1.48-0.82,2.2c-1.01-0.88-1.75-1.73-1.05-3.14c0.26-0.52,0.28-1.15,0.52-1.68c0.39-0.84-0.12-1.36-0.64-1.81
		c-0.58-0.51-0.91,0.23-1.32,0.45c-0.74,0.38-1.33,1.58-2.24,0.16c-0.39-0.6-0.32-0.89,0.21-1.28c1.94-1.42,3.88-2.84,5.78-4.31
		c0.63-0.48,1-0.39,1.42,0.22c0.77,1.1,1.68,2.13,2.38,3.27c1.21,1.97-0.12,4.61-2.37,4.39C88.3,544.84,88.2,545.59,87.93,546.52z
		 M95.95,545.9c-0.51,0.64-1.04,1.27-1.54,1.91c-0.73,0.92-1.94,1.82-2,2.79c-0.06,0.9,1.47,1.47,2.32,2.17
		c0.49,0.4,0.66,0.71,0.2,1.28c-0.47,0.57-0.87,0.74-1.41,0.15c-0.04-0.04-0.09-0.07-0.14-0.11c-1.26-1.12-3.44-1.87-3.67-3.3
		c-0.21-1.32,1.76-2.55,2.73-3.85c0.66-0.89,1.38-1.74,2.09-2.61c0.21-0.27,0.45-0.6,0.85-0.27c0.39,0.31,0.75,0.66,1.15,1.02
		C96.29,545.43,96.13,545.68,95.95,545.9z M100.98,557.67c-0.35-0.02-0.69-0.08-1.04-0.15c-3.59-0.72-3.87-1.24-2.34-4.42
		c0.68-1.42,1.33-2.85,2.04-4.26c0.18-0.37,0.24-0.9,0.92-0.84c2.41,0.19,5.25,3.35,5.11,5.72
		C105.52,556.1,103.51,557.81,100.98,557.67z M117.39,560.07c-0.23-0.47-0.61-0.86-0.89-1.3c-0.41-0.69-1.09-0.65-1.71-0.57
		c-0.82,0.12-0.38,0.83-0.48,1.27c-0.07,0.28-0.04,0.59-0.02,0.88c0.05,0.73-0.25,1.04-1.02,1.04c-0.81,0-1.16-0.24-1.13-1.11
		c0.08-2.33,0.11-4.67,0.14-7.01c0.01-0.59,0.09-1.06,0.84-1.02c1.52,0.07,3.07-0.02,4.55,0.24c2.23,0.39,3.19,2.95,1.65,4.58
		c-0.88,0.93-0.56,1.41,0,2.14c0.49,0.65,0.94,1.32,1.52,2.14C119.14,561.81,118.07,561.44,117.39,560.07z M129.26,559.65
		c-0.05,0.01-0.11,0.03-0.17,0.04c-1.7,0.4-3.75,1.55-5.01,0.98c-1.33-0.61-1.12-3.11-1.56-4.78c-0.98-3.73-0.93-3.74,2.77-4.64
		c0.69-0.16,1.37-0.32,2.2-0.51c0.65-0.18,0.69,0.45,0.85,0.93c0.2,0.62-0.15,0.82-0.69,0.93c-0.8,0.17-1.59,0.41-2.39,0.6
		c-0.56,0.14-1.21,0.13-1.01,1.05c0.19,0.88,0.71,0.7,1.32,0.53c0.73-0.22,1.5-0.32,2.22-0.54c0.7-0.22,0.92,0.08,1.09,0.7
		c0.17,0.66,0.02,0.98-0.65,1.12c-0.81,0.17-1.6,0.39-2.39,0.58c-0.59,0.13-0.94,0.32-0.73,1.07c0.19,0.7,0.44,1.01,1.2,0.8
		c0.84-0.25,1.71-0.42,2.55-0.67c0.76-0.22,1.04,0.14,1.23,0.81C130.3,559.43,129.83,559.56,129.26,559.65z M139.21,554.99
		c-0.96,0.96-2.82,1.74-4.13,1.73c-1.91-0.02-3.6-1.23-4.3-3.09c-0.65-1.73-0.19-3.64,1.24-4.97c0.7-0.64,1.5-1.13,2.41-1.42
		c0.57-0.18,1.17-0.66,1.56,0.35c0.35,0.9-0.12,1.12-0.79,1.38c-0.48,0.19-0.96,0.43-1.39,0.73c-1.31,0.95-1.61,2.36-0.79,3.7
		c0.84,1.39,2.08,1.62,3.5,1.07c0.54-0.21,1.07-0.52,1.5-0.9c0.66-0.56,1.02-0.21,1.45,0.27
		C139.94,554.37,139.55,554.66,139.21,554.99z M142.47,551.34c-2.57,0.04-4.83-2.21-4.82-4.79c0.01-2.45,2.01-4.47,4.45-4.5
		c2.58-0.03,4.84,2.21,4.84,4.79C146.94,549.27,144.91,551.31,142.47,551.34z M152.26,538.57c-0.52-0.03-1.04,0.2-1.56,0.2
		c-0.92,0.01-1.23,0.71-1.4,1.34c-0.19,0.69,0.64,0.68,0.98,1.03c0.48,0.47,1.87,0.29,1.21,1.63c-0.36,0.73-0.71,1.1-1.59,0.58
		c-2.01-1.2-4.06-2.34-6.13-3.43c-0.68-0.36-0.81-0.69-0.43-1.34c0.69-1.16,1.3-2.36,2.01-3.5c0.6-0.96,1.54-1.47,2.68-1.37
		c1.19,0.11,2.21,0.75,2.49,1.92c0.25,1.08,0.74,1.06,1.59,0.88c0.88-0.18,1.8-0.22,2.81-0.33
		C154.56,537.79,153.84,538.64,152.26,538.57z M156.72,529.98c-0.19,3.32-0.33,3.42-3.56,2.66c-1.65-0.39-3.3-0.8-4.96-1.13
		c-0.81-0.17-1.12-0.47-0.81-1.31c0.28-0.76,0.39-1.59,0.69-2.34c0.98-2.43,3.02-3.67,5.18-3.21c2.25,0.47,3.52,2.3,3.46,4.98
		V529.98z M156.36,522.64c-0.63-0.13-0.66-0.47-0.51-1.03c0.26-1.02,0.37-2.07,0.2-3.13c-0.08-0.47-0.16-0.99-0.75-1.03
		c-0.51-0.03-0.63,0.44-0.77,0.83c-0.3,0.82-0.59,1.65-0.91,2.47c-0.49,1.26-1.3,2.1-2.78,1.93c-1.45-0.16-1.89-1.23-2.12-2.44
		c-0.11-0.58-0.12-1.17-0.17-1.7c0.06-0.58,0.11-1.11,0.17-1.63c0.08-0.62,0.2-1.11,1.07-1.02c0.86,0.08,0.86,0.53,0.81,1.19
		c-0.07,0.87-0.06,1.75-0.03,2.63c0.01,0.32,0.03,0.76,0.48,0.82c0.42,0.05,0.62-0.27,0.75-0.61c0.36-0.93,0.71-1.87,1.07-2.8
		c0.41-1.06,1.09-1.81,2.33-1.79c1.2,0.02,1.96,0.72,2.41,1.76c0.72,1.66,0.45,3.34,0.01,5
		C157.44,522.78,156.93,522.76,156.36,522.64z"/>
	<path fill="#E7E8EC" d="M81.5,521c-1.85-0.55-3.19-0.96-4.53-1.35c-0.63-0.18-1.02-0.47-0.99-1.22c0.02-0.7,0.47-0.88,1-1.02
		c2.32-0.62,4.64-1.25,6.97-1.85c0.38-0.1,0.98-0.58,1.1,0.24c0.09,0.62,0.41,1.43-0.66,1.69c-1.25,0.3-2.49,0.68-3.85,1.07
		c1.09,0.8,2.34,0.86,3.46,1.27c0.54,0.2,1.14,0.24,1.2,1.05c0.07,0.93-0.6,1.02-1.2,1.22c-1.05,0.36-2.1,0.71-3.39,1.15
		c1.24,0.73,2.44,0.83,3.57,1.05c1,0.2,1.29,0.74,1.12,1.6c-0.21,1.12-0.98,0.48-1.5,0.37c-2.12-0.47-4.23-1-6.34-1.48
		c-0.63-0.14-1.27-0.15-1.34-1.07c-0.09-1.02,0.66-1.12,1.3-1.34C78.61,521.95,79.84,521.55,81.5,521z"/>
	<path fill="#E7E8EC" d="M110.95,486c-0.37-1.73-0.61-3.05-0.95-4.34c-0.19-0.72-0.09-1.07,0.69-1.25c0.77-0.18,1.16-0.07,1.34,0.8
		c0.45,2.18,1.01,4.33,1.49,6.5c0.1,0.47,0.5,1.1-0.17,1.4c-0.61,0.27-1.28,0.54-1.96-0.08c-1.37-1.26-2.8-2.46-4.58-4.01
		c0.38,1.78,0.6,3.12,0.97,4.42c0.22,0.8-0.06,1.03-0.77,1.18c-0.7,0.15-1.09,0.05-1.25-0.73c-0.47-2.17-1.01-4.33-1.48-6.5
		c-0.11-0.51-0.58-1.19,0.23-1.52c0.63-0.25,1.28-0.47,1.94,0.16C107.8,483.31,109.24,484.5,110.95,486z"/>
	<path fill="#E7E8EC" d="M117.97,484.1c-0.13,1.41-0.28,2.74-0.35,4.08c-0.04,0.82-0.43,0.94-1.15,0.84
		c-0.72-0.1-0.98-0.33-0.89-1.12c0.24-2.15,0.35-4.31,0.55-6.47c0.05-0.52-0.27-1.34,0.55-1.47c0.8-0.13,1.57,0.01,2.06,0.93
		c0.82,1.53,1.79,2.99,2.95,4.9c0.16-1.72,0.32-3.01,0.4-4.3c0.04-0.77,0.24-1.16,1.14-1.11c0.92,0.05,1.04,0.5,0.97,1.25
		c-0.2,2.15-0.36,4.31-0.58,6.47c-0.05,0.51,0.26,1.3-0.63,1.4c-0.71,0.08-1.39-0.02-1.82-0.76c-0.8-1.36-1.63-2.7-2.45-4.05
		C118.56,484.46,118.5,484.13,117.97,484.1z"/>
	<path fill="#E7E8EC" d="M152.11,536.51c-0.85,0.18-1.34,0.2-1.59-0.88c-0.28-1.17-1.3-1.81-2.49-1.92
		c-1.14-0.1-2.08,0.41-2.68,1.37c-0.71,1.14-1.32,2.34-2.01,3.5c-0.38,0.65-0.25,0.98,0.43,1.34c2.07,1.09,4.12,2.23,6.13,3.43
		c0.88,0.52,1.23,0.15,1.59-0.58c0.66-1.34-0.73-1.16-1.21-1.63c-0.34-0.35-1.17-0.34-0.98-1.03c0.17-0.63,0.48-1.33,1.4-1.34
		c0.52,0,1.04-0.23,1.56-0.2c1.58,0.07,2.3-0.78,2.66-2.39C153.91,536.29,152.99,536.33,152.11,536.51z M147.2,539.33
		c-0.42,0.09-1.64-0.36-1.47-1.12c0.21-0.94,0.59-2.1,1.77-2.37c0.72-0.17,1.16,0.36,1.34,1.14
		C148.38,537.81,148.35,539.09,147.2,539.33z"/>
	<path fill="#E7E8EC" d="M119.32,559.21c-0.56-0.73-0.88-1.21,0-2.14c1.54-1.63,0.58-4.19-1.65-4.58c-1.48-0.26-3.03-0.17-4.55-0.24
		c-0.75-0.04-0.83,0.43-0.84,1.02c-0.03,2.34-0.06,4.68-0.14,7.01c-0.03,0.87,0.32,1.11,1.13,1.11c0.77,0,1.07-0.31,1.02-1.04
		c-0.02-0.29-0.05-0.6,0.02-0.88c0.1-0.44-0.34-1.15,0.48-1.27c0.62-0.08,1.3-0.12,1.71,0.57c0.28,0.44,0.66,0.83,0.89,1.3
		c0.68,1.37,1.75,1.74,3.45,1.28C120.26,560.53,119.81,559.86,119.32,559.21z M115.61,556.44c-0.76,0.11-1.34-0.02-1.3-1.24
		c0.03-1.11,0.52-1.25,1.4-1.14c0.89,0.11,2.11-0.13,2.14,1.19C117.88,556.61,116.71,556.44,115.61,556.44z"/>
	<path fill="#E7E8EC" d="M92.17,540.6c-0.7-1.14-1.61-2.17-2.38-3.27c-0.42-0.61-0.79-0.7-1.42-0.22c-1.9,1.47-3.84,2.89-5.78,4.31
		c-0.53,0.39-0.6,0.68-0.21,1.28c0.91,1.42,1.5,0.22,2.24-0.16c0.41-0.22,0.74-0.96,1.32-0.45c0.52,0.45,1.03,0.97,0.64,1.81
		c-0.24,0.53-0.26,1.16-0.52,1.68c-0.7,1.41,0.04,2.26,1.05,3.14c0.53-0.72,0.6-1.49,0.82-2.2c0.27-0.93,0.37-1.68,1.87-1.53
		C92.05,545.21,93.38,542.57,92.17,540.6z M89.42,542.98c-1.15-0.21-1.71-1.3-2.02-2.21c-0.2-0.59,0.94-1.32,1.42-1.22
		c1.08,0.21,1.42,1.36,1.9,2.21C90.57,542.55,90.14,543.11,89.42,542.98z"/>
	<path fill="#E5E6EA" d="M142.1,542.05c-2.44,0.03-4.44,2.05-4.45,4.5c-0.01,2.58,2.25,4.83,4.82,4.79c2.44-0.03,4.47-2.07,4.47-4.5
		C146.94,544.26,144.68,542.02,142.1,542.05z M142.67,549.39c-1.48,0.05-3.07-1.56-3.04-3.07c0.03-1.28,1.12-2.33,2.4-2.31
		c1.44,0.02,2.97,1.54,2.98,2.96C145.02,548.18,143.89,549.34,142.67,549.39z"/>
	<path fill="#E7E8EC" d="M153.26,524.65c-2.16-0.46-4.2,0.78-5.18,3.21c-0.3,0.75-0.41,1.58-0.69,2.34c-0.31,0.84,0,1.14,0.81,1.31
		c1.66,0.33,3.31,0.74,4.96,1.13c3.23,0.76,3.37,0.66,3.56-2.66v-0.35C156.78,526.95,155.51,525.12,153.26,524.65z M154.86,530.05
		c-0.17,0.72-0.57,0.74-1.15,0.59c-0.85-0.21-1.7-0.4-2.55-0.6c-1.8-0.42-1.99-1.08-0.74-2.5c0.49-0.56,1.1-0.84,1.84-0.86
		C153.99,526.67,155.27,528.37,154.86,530.05z"/>
	<path fill="#E7E8EC" d="M100.56,548c-0.68-0.06-0.74,0.47-0.92,0.84c-0.71,1.41-1.36,2.84-2.04,4.26c-1.53,3.18-1.25,3.7,2.34,4.42
		c0.35,0.07,0.69,0.13,1.04,0.15c2.53,0.14,4.54-1.57,4.69-3.95C105.81,551.35,102.97,548.19,100.56,548z M99.63,555.51
		c-0.6-0.31-0.56-0.64-0.33-1.11c0.35-0.73,0.64-1.51,1.09-2.18c0.38-0.57,0.21-1.87,1.41-1.48c1.13,0.37,1.73,1.32,1.81,2.41
		C103.53,555.21,101.35,556.4,99.63,555.51z"/>
	<path fill="#E7E8EC" d="M82.91,528.41c-2.59-0.01-4.81,2.08-4.85,4.57c-0.03,2.51,2.01,4.55,4.57,4.56c2.62,0,4.81-2.04,4.85-4.54
		C87.53,530.54,85.42,528.43,82.91,528.41z M82.36,535.55c-1.35-0.05-2.39-1.16-2.36-2.52c0.03-1.42,1.54-2.65,3.19-2.59
		c1.36,0.06,2.39,1.15,2.35,2.52C85.51,534.38,83.99,535.61,82.36,535.55z"/>
	<path fill="#E5E6EA" d="M129.03,487.49c-0.98-0.3-0.97,0.33-1.16,0.7c-0.26,0.52-0.14,0.87,0.45,1.07
		c0.83,0.28,1.64,0.65,2.47,0.91c0.64,0.2,1.07,0.4,0.78,1.21c-0.26,0.74-0.69,0.87-1.34,0.56c-0.11-0.05-0.22-0.08-0.33-0.13
		c-1.56-0.66-3.88-0.68-4.54-1.96c-0.66-1.29,0.8-3.11,1.36-4.68c1.33-3.72,1.36-3.71,5.11-2.34c0.5,0.18,0.99,0.36,1.49,0.53
		c0.59,0.2,1.09,0.4,0.75,1.23c-0.29,0.71-0.65,0.85-1.34,0.54c-0.8-0.36-1.66-0.59-2.47-0.92c-0.5-0.2-0.87-0.28-1.09,0.36
		c-0.21,0.6-0.16,0.97,0.54,1.18c0.79,0.23,1.53,0.58,2.31,0.84c0.63,0.21,0.81,0.56,0.57,1.19c-0.23,0.6-0.54,0.84-1.19,0.57
		C130.55,488.01,129.66,487.72,129.03,487.49z"/>
	<path fill="#E5E6EA" d="M127.49,550.73c0.65-0.18,0.69,0.45,0.85,0.93c0.2,0.62-0.15,0.82-0.69,0.93c-0.8,0.17-1.59,0.41-2.38,0.6
		c-0.57,0.14-1.21,0.13-1.01,1.04c0.19,0.89,0.71,0.71,1.32,0.53c0.73-0.21,1.49-0.31,2.22-0.54c0.7-0.22,0.92,0.08,1.09,0.7
		c0.18,0.66,0.02,0.98-0.65,1.12c-0.8,0.17-1.59,0.39-2.39,0.58c-0.58,0.14-0.93,0.32-0.72,1.07c0.19,0.7,0.44,1.02,1.2,0.8
		c0.84-0.24,1.71-0.41,2.55-0.66c0.76-0.22,1.05,0.14,1.23,0.81c0.21,0.78-0.26,0.9-0.82,1c-0.06,0.01-0.11,0.03-0.17,0.04
		c-1.7,0.39-3.76,1.55-5.01,0.98c-1.33-0.61-1.12-3.1-1.56-4.77c-0.98-3.73-0.93-3.74,2.77-4.64
		C125.98,551.08,126.66,550.93,127.49,550.73z"/>
	<path fill="#E5E6EA" d="M148.55,518.54c0.06-0.58,0.11-1.11,0.17-1.63c0.07-0.62,0.2-1.11,1.06-1.02c0.86,0.08,0.86,0.53,0.81,1.19
		c-0.07,0.87-0.06,1.75-0.03,2.63c0.01,0.33,0.03,0.76,0.48,0.82c0.41,0.05,0.62-0.27,0.75-0.61c0.36-0.93,0.71-1.86,1.06-2.79
		c0.41-1.07,1.1-1.82,2.34-1.8c1.2,0.02,1.95,0.72,2.41,1.76c0.72,1.66,0.45,3.33,0.01,5c-0.18,0.69-0.68,0.67-1.25,0.55
		c-0.63-0.13-0.66-0.47-0.52-1.03c0.26-1.02,0.38-2.08,0.2-3.14c-0.08-0.47-0.15-0.99-0.75-1.02c-0.51-0.03-0.63,0.43-0.77,0.82
		c-0.3,0.83-0.59,1.65-0.91,2.47c-0.49,1.26-1.3,2.1-2.78,1.93c-1.45-0.16-1.9-1.23-2.12-2.44
		C148.61,519.66,148.6,519.07,148.55,518.54z"/>
	<path fill="#E5E6EA" d="M83.99,497.8c0.04-1.48,1.12-2.89,2.5-4.16c0.45-0.41,0.76-0.38,1.17,0.05c0.39,0.42,0.71,0.76,0.15,1.3
		c-0.5,0.49-0.98,1.02-1.34,1.61c-0.94,1.52-0.53,3.02,0.98,3.89c1.4,0.8,3.08,0.25,3.93-1.19c0.56-0.96-0.38-1.03-0.73-1.45
		c-0.43-0.5-1.49-0.65-0.66-1.73c0.8-1.04,1.28-0.28,1.83,0.14c2.63,1.98,2.67,2.82,0.21,5.16c-1.49,1.41-3.2,1.91-5.16,1.11
		C85.09,501.82,83.97,500.15,83.99,497.8z"/>
	<path fill="#E7E8EC" d="M100.18,492.18c-0.18,1.82-1.15,3.03-2.82,3.7c-1.62,0.66-3.06,0.23-4.15-1.01
		c-1.08-1.23-1.95-2.64-2.96-3.92c-0.55-0.7-0.13-1,0.35-1.41c0.59-0.5,0.99-0.4,1.42,0.23c0.79,1.16,1.65,2.28,2.48,3.41
		c0.79,1.06,1.75,1.38,2.87,0.52c1.04-0.8,0.98-1.77,0.24-2.76c-0.87-1.18-1.72-2.37-2.6-3.54c-0.34-0.45-0.45-0.82,0.14-1.12
		c0.42-0.22,0.84-1,1.31-0.34c1.29,1.79,2.94,3.36,3.63,5.54C100.16,491.71,100.15,491.95,100.18,492.18z"/>
	<path fill="#E7E8EC" d="M146.28,493.62c1.35-0.01,4.33,3.02,4.38,4.41c0.02,0.57-0.43,0.61-0.75,0.82
		c-0.46,0.3-0.72,0.12-0.99-0.29c-0.55-0.82-1.12-1.63-1.72-2.42c-0.21-0.28-0.51-0.56-0.89-0.37c-0.39,0.19-0.32,0.6-0.24,0.93
		c0.27,1.07,0.56,2.14,0.87,3.21c0.3,1.03-0.02,1.84-0.84,2.48c-0.82,0.63-1.71,0.69-2.64,0.24c-1.81-0.89-2.69-2.52-3.39-4.29
		c-0.23-0.59,0.12-0.82,0.6-1.05c0.53-0.25,0.89-0.17,1.1,0.39c0.37,1,0.9,1.9,1.63,2.67c0.32,0.34,0.72,0.69,1.22,0.44
		c0.57-0.29,0.31-0.78,0.18-1.23c-0.29-1.07-0.67-2.13-0.82-3.21C143.79,494.87,144.91,493.63,146.28,493.62z"/>
	<path fill="#E5E6EA" d="M138.51,486.67c1.2,0.01,4.3,2.07,4.75,3.1c0.24,0.54-0.15,0.74-0.41,1.02c-0.31,0.33-0.61,0.48-1.03,0.08
		c-0.68-0.64-1.39-1.25-2.14-1.81c-0.34-0.25-0.81-0.65-1.24-0.18c-0.32,0.36-0.05,0.77,0.17,1.12c0.49,0.8,1,1.58,1.47,2.39
		c0.58,0.98,0.72,1.96-0.09,2.92c-0.78,0.93-1.79,1.1-2.87,0.78c-1.7-0.52-2.88-1.74-3.95-3.09c-0.47-0.6-0.05-0.93,0.36-1.3
		c0.5-0.46,0.79-0.21,1.12,0.22c0.65,0.84,1.38,1.6,2.33,2.1c0.41,0.22,0.91,0.46,1.28,0c0.3-0.37,0.04-0.77-0.17-1.12
		c-0.57-0.95-1.24-1.86-1.69-2.87C135.68,488.39,136.82,486.66,138.51,486.67z"/>
	<path fill="#E5E6EA" d="M135.08,556.72c-1.91-0.02-3.59-1.23-4.29-3.09c-0.65-1.73-0.19-3.64,1.24-4.97
		c0.69-0.64,1.5-1.13,2.4-1.42c0.57-0.18,1.17-0.66,1.56,0.35c0.35,0.9-0.12,1.12-0.79,1.38c-0.49,0.19-0.97,0.43-1.39,0.74
		c-1.32,0.94-1.61,2.36-0.8,3.69c0.84,1.39,2.08,1.62,3.5,1.07c0.54-0.21,1.07-0.52,1.5-0.9c0.65-0.57,1.01-0.22,1.44,0.27
		c0.48,0.54,0.08,0.82-0.25,1.16C138.25,555.94,136.39,556.73,135.08,556.72z"/>
	<path fill="#E7E8EC" d="M96.53,545.08c-0.25,0.35-0.4,0.6-0.58,0.82c-0.51,0.64-1.04,1.27-1.55,1.91c-0.72,0.92-1.93,1.82-2,2.79
		c-0.06,0.9,1.47,1.47,2.32,2.17c0.49,0.41,0.67,0.71,0.2,1.28c-0.47,0.57-0.87,0.74-1.41,0.16c-0.04-0.04-0.09-0.08-0.13-0.11
		c-1.26-1.12-3.44-1.87-3.67-3.3c-0.21-1.32,1.76-2.55,2.73-3.85c0.66-0.89,1.39-1.74,2.09-2.6c0.22-0.27,0.45-0.6,0.85-0.28
		C95.77,544.37,96.13,544.72,96.53,545.08z"/>
	<path fill="#E5E6EA" d="M104.41,491.27c-0.08,0.78-0.75,0.73-1.16,0.98c-0.48,0.29-0.74,0-0.94-0.42c-1.06-2.27-2.11-4.54-3.19-6.8
		c-0.21-0.44-0.24-0.83,0.26-0.99c0.45-0.14,1.07-0.84,1.39-0.23C102.06,486.27,103.22,488.81,104.41,491.27z"/>
	<path fill="#CD992E" d="M122.4,510.94c0.5,1.79,0.79,3.64,1.26,5.93c-2-1.03-3.64-1.8-5.21-2.7c-1.02-0.59-1.88-0.65-2.92-0.02
		c-1.56,0.92-3.2,1.68-5.23,2.73c0.45-2.18,0.75-3.99,1.22-5.76c0.32-1.18,0.07-1.98-0.9-2.74c-1.41-1.12-2.7-2.38-4.24-3.76
		c2.16-0.62,4.14-0.61,6.08-0.85c1.07-0.13,1.67-0.54,2.07-1.54c0.67-1.68,1.49-3.29,2.45-5.36c0.88,1.93,1.68,3.45,2.28,5.04
		c0.48,1.27,1.24,1.83,2.59,1.91c1.8,0.1,3.59,0.38,5.9,0.65c-1.69,1.5-3.03,2.76-4.45,3.91
		C122.42,509.09,122.08,509.78,122.4,510.94z"/>
	<path fill="#143351" d="M133.39,520.25c-0.3,1.81-1.05,2.44-3.01,2.42c-9.1-0.13-18.2-0.06-27.3-0.06c-1.63,0-3.04-1.77-2.66-3.36
		c0.18-0.78,0.84-0.48,1.3-0.49c5.11-0.02,10.22-0.01,15.33-0.01c5.05,0,10.1,0.04,15.14-0.03
		C133.5,518.7,133.57,519.13,133.39,520.25z"/>
	<path fill="#2B4661" d="M131.17,524.23c-0.08,0.86-0.49,1.28-1.49,1.28c-8.46-0.04-16.92-0.05-25.37,0.01
		c-1.15,0-1.53-0.58-1.52-1.42c0.01-1.01,0.95-0.59,1.48-0.6c4.23-0.03,8.46-0.02,12.68-0.02c4.29,0,8.58-0.01,12.87,0.03
		C130.32,523.51,131.26,523.07,131.17,524.23z"/>
	<path fill="#1A3754" d="M118.22,528.04c-0.03,5.04-0.03,10.08,0,15.12c0.01,0.9-0.28,1.23-1.21,1.25c-1.04,0.03-1.29-0.4-1.27-1.36
		c0.05-2.46,0.02-4.92,0.02-7.38c0-2.52,0.04-5.04-0.02-7.56c-0.03-0.99,0.27-1.34,1.29-1.32
		C117.96,526.81,118.23,527.14,118.22,528.04z"/>
	<path fill="#10314F" d="M112.74,543.92c-0.65-0.13-1.67,0.16-1.67-1.06c0-4.85-0.01-9.7,0-14.55c0-1.15,1-0.96,1.67-1.07
		c0.91-0.14,0.64,0.63,0.65,1.07c0.02,2.46,0.01,4.91,0.01,7.36c0,2.4,0.02,4.8-0.01,7.19C113.38,543.3,113.66,544.1,112.74,543.92z
		"/>
	<path fill="#10314F" d="M122.92,541.12c0,0.52-0.03,1.05,0,1.57c0.09,1.33-0.99,1.14-1.7,1.23c-1.04,0.14-0.64-0.77-0.64-1.23
		c-0.05-2.39-0.02-4.79-0.02-7.19c0-2.22-0.05-4.45,0.03-6.66c0.02-0.54-0.61-1.58,0.64-1.6c1.1-0.02,1.76,0.38,1.73,1.77
		C122.85,533.05,122.92,537.08,122.92,541.12z"/>
	<path fill="#213A57" d="M108.16,542.56c-0.78-0.07-1.94-0.26-1.92-1.61c0.03-2.16,0.01-4.33,0.01-6.49c0-1.35,0.03-2.69-0.01-4.04
		c-0.02-0.73,0.22-1.17,0.91-1.5c1.12-0.56,1.66-0.55,1.58,0.96c-0.11,1.92-0.03,3.86-0.03,5.79c0,1.81,0.04,3.63-0.02,5.44
		C108.66,541.62,109.14,542.65,108.16,542.56z"/>
	<path fill="#213A57" d="M127.39,541.89c-0.58,0.38-1.24,0.92-1.91,0.67c-0.48-0.18-0.2-0.94-0.21-1.44
		c-0.02-1.88-0.01-3.75-0.01-5.62c0-1.82-0.04-3.63,0.03-5.44c0.02-0.5-0.56-1.51,0.51-1.44c0.83,0.06,1.92,0.3,1.91,1.61
		c-0.01,2.17,0,4.33,0,6.5c0,1.29,0.01,2.58-0.01,3.86C127.7,541.05,127.85,541.58,127.39,541.89z"/>
	<path fill="#213A57" d="M148.84,536.98c-0.47,0.83-0.5,2.11-1.64,2.35c-0.42,0.09-1.64-0.36-1.47-1.12
		c0.21-0.95,0.59-2.11,1.77-2.38C148.22,535.67,148.66,536.2,148.84,536.98z"/>
	<path fill="#213A57" d="M115.61,556.43c-0.76,0.11-1.34-0.01-1.3-1.24c0.03-1.11,0.52-1.24,1.4-1.14c0.89,0.11,2.11-0.13,2.14,1.19
		C117.88,556.6,116.71,556.43,115.61,556.43z"/>
	<path fill="#213A57" d="M90.72,541.75c-0.14,0.8-0.57,1.35-1.29,1.22c-1.16-0.21-1.72-1.3-2.03-2.22c-0.2-0.58,0.95-1.31,1.42-1.22
		C89.9,539.75,90.24,540.91,90.72,541.75z"/>
	<path fill="#153250" d="M145.01,546.97c0.01,1.21-1.11,2.37-2.34,2.42c-1.48,0.05-3.07-1.56-3.04-3.07
		c0.03-1.28,1.12-2.32,2.4-2.31C143.47,544.02,145,545.54,145.01,546.97z"/>
	<path fill="#1A3754" d="M152.26,526.68c1.73-0.01,3.01,1.68,2.61,3.36c-0.18,0.73-0.57,0.75-1.16,0.6c-0.85-0.22-1.7-0.41-2.55-0.6
		c-1.79-0.42-1.99-1.08-0.74-2.5C150.91,526.97,151.52,526.7,152.26,526.68z"/>
	<path fill="#1A3754" d="M103.61,553.14c-0.07,2.06-2.25,3.26-3.98,2.36c-0.59-0.31-0.56-0.64-0.33-1.11
		c0.35-0.73,0.64-1.51,1.09-2.18c0.38-0.57,0.22-1.87,1.42-1.48C102.93,551.11,103.53,552.05,103.61,553.14z"/>
	<path fill="#1A3754" d="M85.54,532.95c-0.04,1.43-1.55,2.66-3.19,2.59c-1.35-0.05-2.39-1.16-2.36-2.52
		c0.03-1.42,1.55-2.65,3.19-2.59C84.55,530.49,85.58,531.59,85.54,532.95z"/>
</g>
</svg>
