<?xml version="1.0" encoding="utf-8"?>
<!-- Generator: Adobe Illustrator 26.3.1, SVG Export Plug-In . SVG Version: 6.00 Build 0)  -->
<svg version="1.1" id="Layer_1" xmlns="http://www.w3.org/2000/svg" xmlns:xlink="http://www.w3.org/1999/xlink" x="0px" y="0px"
	 viewBox="0 0 194.95 194.95" style="enable-background:new 0 0 194.95 194.95;" xml:space="preserve">
<style type="text/css">
	.st0{fill:#222B5E;}
	.st1{fill:#FDBA24;}
	.st2{fill:#FFFFFF;}
	.st3{fill:#EF3D23;}
	.st4{fill:#53BA65;}
</style>
<path class="st0" d="M163.75,194.95H31.2c-17.23,0-31.2-13.97-31.2-31.2V31.2C0,13.97,13.97,0,31.2,0h132.55
	c17.23,0,31.2,13.97,31.2,31.2v132.55C194.95,180.98,180.98,194.95,163.75,194.95z"/>
<g>
	<g>
		<path class="st1" d="M155.44,84.44c-0.38-1.18-1.01-2.31-1.59-3.37c-0.85-1.53-1.89-2.87-2.9-4.28c-0.99-1.39-1.9-2.85-3.1-4.08
			c-0.04-0.05-0.28-0.33-0.36-0.27c2.04-1.38,4.08-2.76,6.12-4.14c0.69-0.47,1.12-1.37,0.65-2.16c-0.41-0.68-1.42-1.14-2.16-0.65
			l-6.5,4.39c-0.09,0.06-0.18,0.13-0.26,0.21c-2.36-2.46-4.91-4.76-7.6-6.87c-1.71-1.34-3.49-2.61-5.32-3.79
			c2-3.09,3.99-6.17,5.99-9.26c0.56-0.87,0.3-2.2-0.62-2.73c-0.94-0.54-2.13-0.31-2.73,0.62c-2.01,3.11-4.02,6.21-6.03,9.32
			c-4.71-2.7-9.71-4.89-14.87-6.57c1.72-3.38,3.07-6.94,3.98-10.62c0.22-0.89-0.2-1.95-1.15-2.2c-0.88-0.23-1.97,0.2-2.2,1.15
			c-0.49,1.98-1.1,3.93-1.84,5.83c-0.35,0.9-0.72,1.79-1.12,2.66c-0.02,0.05-0.08,0.16-0.09,0.19c-0.06,0.12-0.12,0.25-0.18,0.37
			c-0.11,0.22-0.22,0.45-0.33,0.67c-0.15,0.31-0.31,0.61-0.47,0.91c-4.76-1.34-9.66-2.3-14.6-2.83c-0.09-0.01,0.77-11.4,0.8-12.48
			c0.01-0.6,0-1.25-0.33-1.75c-0.26-0.39-0.7-0.65-1.17-0.68c-0.47-0.04-0.94,0.15-1.26,0.49c-0.43,0.47-0.53,1.14-0.6,1.77
			c-0.09,0.86-0.81,12.35-0.82,12.35c-3.77-0.25-7.55-0.25-11.29,0.02c-0.82,0.06-1.65,0.21-2.47,0.26
			c-0.88-3.27-1.75-6.53-2.63-9.8c-0.24-0.88-1.18-1.55-2.1-1.29C73.4,36.1,72.75,37,73,37.94l2.55,9.49
			c-1.94,0.4-3.94,1.03-5.86,1.52c-0.64,0.16-7.19,2.29-7.13,2.45c-0.06-0.11-0.52-0.61-0.59-0.71c-0.05-0.06-0.1-0.13-0.14-0.2
			c-0.02-0.02-0.04-0.06-0.07-0.1c-0.09-0.13-0.18-0.26-0.28-0.4c-0.21-0.31-0.42-0.62-0.62-0.94c-0.4-0.63-0.79-1.28-1.15-1.94
			c-0.72-1.32-1.36-2.68-1.91-4.08c-0.33-0.83-1.58-1.12-2.3-0.69c-0.86,0.52-1.04,1.41-0.69,2.3c1.09,2.76,2.92,5.72,4.64,8.14
			c-1.79,0.87-3.53,1.84-5.21,2.93c-2.59,1.67-5.01,3.58-7.23,5.69c-0.08-0.21-0.59-0.8-0.75-0.98c-1.15-1.24-2.3-2.48-3.45-3.71
			c-0.64-0.69-1.86-0.78-2.54-0.09c-0.68,0.69-0.77,1.8-0.09,2.54c1.15,1.24,2.3,2.48,3.45,3.71c0.68,0.73-1.53,2.96-2.09,3.79
			c-1.33,1.96-2.56,4.01-3.74,6.07c-1.05,1.82-1.64,3.76-2.25,5.75c0.94-0.76,1.88-1.51,2.75-2.35c1.11-1.07,2.25-2.11,3.42-3.12
			c0.84-0.72,1.75-1.22,2.57-1.98c0.91-0.84,1.84-1.65,2.8-2.43c1.91-1.56,3.93-3,6.02-4.31c14.64-9.17,32.98-10.9,49.79-8.02
			c16.32,2.79,32.84,10.63,44.64,22.38c1.42,1.41,2.77,2.92,4.02,4.49c0.94,1.18,1.94,2.3,2.96,3.42c0.22,0.25,0.8,0.87,1.16,0.54
			c0.24-0.22,0.14-0.81,0.12-1.09C155.73,85.48,155.61,84.95,155.44,84.44z"/>
		<path class="st1" d="M144.17,61.01c0.47-0.02,0.97-0.14,1.42-0.53c0.26-0.22,0.72-0.57,0.83-1.18c0.25-1.47-0.87-1.69-1.34-1.67
			c-0.47,0.02-0.97,0.14-1.42,0.53c-0.26,0.22-0.72,0.57-0.83,1.18C142.58,60.81,143.7,61.03,144.17,61.01z"/>
		<path class="st1" d="M37.47,66.24c0.12-0.22,0.19-0.47,0.06-0.77c-0.07-0.17-0.18-0.47-0.57-0.66c-0.94-0.47-1.42-0.01-1.55,0.2
			c-0.12,0.22-0.19,0.47-0.06,0.77c0.07,0.17,0.18,0.47,0.57,0.66C36.86,66.92,37.35,66.46,37.47,66.24z"/>
		<path class="st1" d="M155.59,76.14c0.33,0.02,0.68-0.03,1.02-0.27c0.19-0.14,0.54-0.36,0.65-0.79c0.26-1.04-0.5-1.28-0.83-1.3
			c-0.33-0.02-0.68,0.03-1.02,0.27c-0.19,0.14-0.54,0.36-0.65,0.79C154.5,75.87,155.27,76.12,155.59,76.14z"/>
		<path class="st1" d="M67.5,41.91c-0.21-0.76-0.5-1.54-0.97-2.17c-0.27-0.37-0.73-1.03-1.23-1.05c-1.22-0.04-0.94,1.83-0.74,2.58
			c0.21,0.76,0.5,1.54,0.97,2.17c0.27,0.37,0.73,1.03,1.23,1.05C67.99,44.54,67.71,42.66,67.5,41.91z"/>
		<path class="st1" d="M50.24,50.41c-0.3-0.54-0.69-1.06-1.2-1.4c-0.3-0.2-0.81-0.56-1.26-0.39c-1.1,0.42-0.55,1.82-0.25,2.35
			c0.3,0.54,0.69,1.06,1.2,1.4c0.3,0.2,0.81,0.56,1.26,0.39C51.09,52.34,50.54,50.94,50.24,50.41z"/>
		<path class="st1" d="M86.17,39.26c0.01-0.79-0.06-1.62-0.34-2.36c-0.16-0.43-0.42-1.19-0.9-1.34c-1.17-0.37-1.4,1.51-1.41,2.29
			c-0.01,0.79,0.06,1.62,0.34,2.36c0.16,0.43,0.42,1.19,0.9,1.34C85.93,41.91,86.16,40.03,86.17,39.26z"/>
		<path class="st1" d="M106.29,41.44c0.25-0.75,0.44-1.56,0.4-2.35c-0.02-0.46-0.03-1.26-0.45-1.56c-1-0.71-1.8,1.01-2.04,1.74
			c-0.25,0.75-0.44,1.56-0.4,2.35c0.02,0.46,0.03,1.26,0.45,1.56C105.24,43.9,106.04,42.18,106.29,41.44z"/>
		<path class="st1" d="M126.23,48.2c0.44-0.65,0.83-1.39,1-2.16c0.1-0.45,0.3-1.23-0.02-1.62c-0.77-0.95-2,0.5-2.43,1.15
			c-0.44,0.65-0.83,1.39-1,2.16c-0.1,0.45-0.3,1.23,0.02,1.62C124.57,50.29,125.8,48.85,126.23,48.2z"/>
		<path class="st2" d="M74.7,79.84c0.58-0.42,1.07-0.72,1.49-1.1c1.8-1.64,3.07-3.62,3.74-5.97c0.33-1.16,0.37-2.35-0.16-3.49
			c-0.11-0.24-0.14-0.51-0.21-0.75c0.71-0.35,1.01-0.31,1.5,0.29c0.74,0.92,0.98,2,0.84,3.16c-0.3,2.43-1.34,4.55-2.74,6.51
			c-0.7,0.99-1.51,1.94-2.42,2.74c-1.57,1.37-3.33,1.04-4.37-0.77c-0.37-0.64-0.64-1.36-0.82-2.07c-0.74-2.83-0.77-5.71-0.38-8.6
			c0.07-0.48,0.25-0.84,0.8-0.9c0.51-0.05,0.91,0.17,1.12,0.7c0.11,0.28,0.15,0.59,0.15,0.89c0.01,0.75-0.04,1.5-0.02,2.24
			c0.04,1.46,0.09,2.92,0.2,4.37c0.04,0.53,0.2,1.08,0.42,1.56C74.02,79.07,74.37,79.4,74.7,79.84z"/>
		<path class="st2" d="M86.62,77.09c0.01,0.06,0.02,0.1,0.03,0.14s0.02,0.06,0.02,0.08c0.01,0.04,0.01,0.06,0.01,0.07
			c-0.01,0.05-0.01,0.11-0.02,0.16c-0.01,0.05-0.01,0.11-0.02,0.16c0,0.05-0.01,0.11-0.01,0.16c0,0.05-0.01,0.11-0.01,0.16
			c0,0.05-0.01,0.11-0.01,0.16c0,0.05,0,0.11-0.01,0.16s0,0.11,0,0.16c0,0.05,0,0.11,0,0.16c0,0.05,0,0.11,0,0.16
			c0,0.05,0,0.11,0,0.16c0,0.05,0,0.11,0,0.16c0,0.05,0,0.11,0,0.16c0,0.05,0,0.11,0,0.16c0,0.05,0,0.11,0,0.16
			c0,0.05,0,0.11,0.01,0.16c0,0.05,0,0.11,0.01,0.16c0,0.05,0.01,0.11,0.01,0.16s0.01,0.11,0.01,0.16s0.01,0.11,0.02,0.16
			s0.01,0.11,0.02,0.16s0.02,0.11,0.03,0.16c0.01,0.05,0.02,0.11,0.03,0.16c0.01,0.03,0,0.06,0,0.1c-0.01,0.04-0.02,0.08-0.03,0.12
			c-0.01,0.04-0.03,0.08-0.05,0.12c-0.02,0.04-0.04,0.08-0.06,0.11c-0.02,0.03-0.05,0.06-0.07,0.08c-0.02,0.02-0.05,0.04-0.07,0.04
			c-0.04,0.01-0.08,0.02-0.12,0.03c-0.04,0.01-0.08,0.02-0.12,0.02c-0.04,0.01-0.08,0.01-0.13,0.01c-0.04,0-0.08,0.01-0.13,0.01
			c-0.04,0-0.08,0-0.12,0c-0.04,0-0.08-0.01-0.12-0.02c-0.04-0.01-0.08-0.02-0.11-0.03c-0.04-0.01-0.07-0.03-0.1-0.04
			c-0.03-0.02-0.07-0.04-0.1-0.06c-0.03-0.02-0.06-0.05-0.09-0.08c-0.03-0.03-0.06-0.06-0.08-0.09c-0.03-0.03-0.05-0.06-0.08-0.1
			c-0.02-0.03-0.05-0.07-0.07-0.11c-0.02-0.04-0.04-0.07-0.06-0.11c-0.02-0.04-0.04-0.08-0.06-0.11s-0.04-0.07-0.05-0.11
			c-0.02-0.05-0.05-0.11-0.07-0.16c-0.02-0.05-0.04-0.11-0.06-0.16s-0.04-0.11-0.05-0.16c-0.02-0.05-0.03-0.11-0.05-0.16
			c-0.01-0.05-0.03-0.11-0.04-0.16s-0.02-0.11-0.03-0.16c-0.01-0.05-0.02-0.11-0.03-0.16c-0.01-0.05-0.02-0.11-0.02-0.16
			c-0.01-0.05-0.01-0.11-0.02-0.16c0-0.05-0.01-0.11-0.01-0.16c0-0.05,0-0.11-0.01-0.16c0-0.05,0-0.11,0-0.16c0-0.05,0-0.11,0-0.16
			s0-0.11,0.01-0.17c0-0.06,0.01-0.11,0.01-0.17c0-0.06,0.01-0.11,0.02-0.17c0.01-0.06,0.01-0.11,0.02-0.17s0.02-0.11,0.02-0.17
			c0.01-0.06,0.02-0.11,0.03-0.17c0.01-0.06,0.02-0.11,0.03-0.17c0.01-0.04,0.02-0.08,0.03-0.12c0.01-0.04,0.02-0.08,0.04-0.12
			c0.01-0.04,0.03-0.08,0.05-0.12c0.02-0.04,0.04-0.08,0.06-0.11c0.02-0.04,0.04-0.07,0.06-0.11c0.02-0.03,0.05-0.07,0.07-0.1
			c0.03-0.03,0.05-0.06,0.08-0.09s0.06-0.05,0.09-0.07c0.03-0.02,0.06-0.04,0.09-0.06c0.03-0.02,0.07-0.04,0.11-0.05
			c0.04-0.02,0.08-0.03,0.12-0.04c0.04-0.01,0.08-0.02,0.12-0.03c0.04-0.01,0.08-0.01,0.12-0.02s0.08-0.01,0.12,0
			c0.04,0,0.08,0,0.12,0.01c0.04,0.01,0.07,0.01,0.11,0.03c0.04,0.01,0.09,0.04,0.12,0.06c0.04,0.03,0.08,0.06,0.11,0.1
			c0.04,0.04,0.07,0.07,0.1,0.11c0.03,0.04,0.06,0.08,0.09,0.11s0.05,0.07,0.08,0.1C86.58,77.05,86.6,77.07,86.62,77.09z"/>
		<path class="st2" d="M86.06,74.85c-0.54,0.07-1.14-0.34-1.21-0.83c-0.06-0.4,0.37-0.89,0.85-0.98c0.56-0.1,1.08,0.28,1.16,0.85
			C86.93,74.4,86.62,74.78,86.06,74.85z"/>
		<path class="st2" d="M107.39,65.65c-0.73-0.97-1.81,0.24-2.05,0.96c-0.27,0.85-0.23,1.76-0.36,2.63
			c-0.13,0.89-0.27,1.78-0.31,2.68c-0.01,0.24-0.06,0.47-0.09,0.71c-0.04,0.33-0.22,0.45-0.54,0.49c-0.33,0.05-0.68,0.1-0.98,0.24
			c-0.69,0.33-0.75,1.1-0.13,1.55c0.21,0.15,0.48,0.28,0.74,0.31c0.77,0.09,0.99,0.55,1.05,1.24c0.09,0.91,0.2,1.82,0.4,2.71
			c0.2,0.89,0.48,1.76,0.78,2.62c0.2,0.58,0.59,1.07,1.09,1.44c0.76,0.55,1.79,0.39,2.36-0.35c0.27-0.36,0.23-0.57-0.17-0.83
			c-0.09-0.05-0.18-0.11-0.27-0.14c-0.72-0.16-1.12-0.69-1.29-1.32c-0.35-1.34-0.67-2.69-0.9-4.06c-0.15-0.87,0.04-1,0.94-1.01
			c0.68-0.01,1.36,0.01,2.04,0.01c0.2,0,0.41,0,0.61-0.01c0.27-0.02,0.59-0.01,0.66-0.34c0.07-0.35-0.26-0.44-0.49-0.56
			c-0.89-0.44-1.84-0.68-2.82-0.84c-0.94-0.15-1.19-0.37-1.12-1.34c0.08-1.21,0.26-2.42,0.46-3.62c0.13-0.82,0.6-1.59,0.6-2.44
			C107.62,66.11,107.54,65.84,107.39,65.65z"/>
		<path class="st2" d="M91.58,74.41c0.31,0.35,0.58,0.7,0.88,0.99c0.27,0.26,0.59,0.45,0.88,0.69c1,0.82,1.22,2.03,0.49,3.08
			c-0.74,1.07-1.68,1.96-2.8,2.63c-0.12,0.07-0.24,0.13-0.36,0.18c-0.27,0.1-0.58,0.11-0.73-0.15c-0.11-0.21-0.15-0.51-0.1-0.75
			c0.04-0.21,0.23-0.41,0.38-0.59c0.48-0.57,0.98-1.12,1.47-1.69c0.24-0.28,0.47-0.57,0.69-0.85c-0.13-0.45-0.51-0.57-0.78-0.81
			c-0.55-0.49-1.12-0.98-1.62-1.52c-0.47-0.51-0.5-1.18-0.39-1.83c0.17-1.03,1.51-1.8,2.53-1.49c0.52,0.16,0.68,0.77,0.3,1.25
			C92.19,73.83,91.91,74.07,91.58,74.41z"/>
		<path class="st2" d="M99.41,77.18c0.01,0.33,0.03,0.53,0.02,0.73c-0.06,0.94,0.2,1.8,0.63,2.62c0.02,0.03,0.03,0.06,0.05,0.09
			c0.12,0.28,0.28,0.56,0.03,0.85c-0.24,0.27-0.77,0.37-1.12,0.17c-0.23-0.13-0.43-0.32-0.6-0.53c-0.81-0.96-1.01-2.11-0.91-3.32
			c0.02-0.28,0.17-0.59,0.34-0.82c0.2-0.28,0.53-0.5,0.88-0.33C99,76.76,99.22,77.02,99.41,77.18z"/>
		<path class="st2" d="M98.49,73c0.55-0.06,0.99,0.28,1.08,0.83c0.08,0.49-0.26,0.89-0.81,0.96c-0.52,0.06-1.17-0.42-1.19-0.87
			C97.55,73.48,97.99,73.05,98.49,73z"/>
		<path class="st2" d="M34.74,100.98c0.98-0.63,1.73-1.03,2.37-1.55c2.07-1.67,4.11-3.4,6.16-5.1c0.43-0.35,0.86-0.72,1.35-0.99
			c0.88-0.49,1.71-0.31,2.33,0.42c0.77,0.92,0.83,1.59,0.1,2.48c-0.55,0.67-1.16,1.3-1.82,1.85c-2.66,2.23-5.37,4.4-8.02,6.64
			c-0.79,0.66-1.72,1.25-2,2.49c1.37,0.64,2.85,0.73,4.29,0.91c2.21,0.28,4.43,0.45,6.64,0.75c0.66,0.09,1.3,0.39,1.9,0.71
			c0.28,0.15,0.64,0.61,0.58,0.82c-0.1,0.35-0.47,0.78-0.8,0.87c-0.95,0.25-1.95,0.48-2.93,0.48c-3.16,0.02-6.33-0.03-9.49-0.13
			c-1.55-0.05-1.56-0.12-1.99,1.47c-0.1,0.36-0.15,0.73-0.27,1.08c-0.35,1.02-1.27,1.31-1.98,0.53c-0.47-0.52-0.82-1.25-0.95-1.94
			c-0.23-1.21-0.32-2.46-0.34-3.7c-0.07-6.01-0.09-12.03-0.13-18.04c0-0.12,0-0.25,0-0.37c0.06-1.38,0.4-2,1.25-2.24
			c1.01-0.29,2.14,0.11,2.6,1.28c0.51,1.3,0.82,2.72,0.97,4.12c0.17,1.66,0.06,3.34,0.08,5.02
			C34.64,99.43,34.69,100.02,34.74,100.98z"/>
		<path class="st2" d="M90.51,104.69c-0.77,1.1-1.34,1.91-1.9,2.71c-1.27,1.79-2.74,3.35-4.67,4.45c-1.82,1.03-3.63,1.25-5.41-0.04
			c-1.57-1.14-2.3-3.47-1.84-5.51c0.42-1.85,1.54-3.26,2.88-4.46c1.9-1.7,4.15-2.69,6.78-2.58c0.75,0.03,1.49,0.14,2,0.8
			c0.35,0.45,0.31,0.98-0.18,1.26c-0.31,0.18-0.69,0.24-1.04,0.36c-1.64,0.58-3.28,1.14-4.59,2.36c-0.93,0.86-1.65,1.86-1.97,3.09
			c-0.16,0.6-0.24,1.27,0.34,1.72c0.57,0.44,1.2,0.28,1.75-0.05c1.77-1.05,3.39-2.31,4.71-3.9c2.34-2.82,3.53-6.09,3.68-9.72
			c0.08-1.86,0-3.72,0.03-5.58c0.01-0.55,0.08-1.12,0.25-1.64c0.21-0.69,0.71-1.15,1.44-1.31c0.74-0.16,1.28,0.02,1.48,0.74
			c0.34,1.24,0.68,2.53,0.71,3.8c0.07,2.6-0.07,5.2-0.13,7.8c-0.01,0.37-0.03,0.74-0.05,1.11c-0.12,2.12-0.25,4.24-0.38,6.36
			c-0.07,1.16-0.06,2.33-0.28,3.47c-0.14,0.73-0.42,1.45-0.93,2c-0.22,0.23-0.51,0.41-0.82,0.43c-1.64,0.11-1.58-2.5-1.52-3.53
			c0.05-1,0.11-2,0.12-3C90.96,105.58,90.76,105.31,90.51,104.69z"/>
		<path class="st2" d="M122.44,95.01c0,0.93-0.02,1.86,0.01,2.79c0.05,1.61,0.18,1.73,1.88,1.79c0.99,0.03,1.99,0.02,2.98,0.03
			c0.37,0.01,0.76-0.03,1.11,0.06c0.27,0.07,0.69,0.28,0.72,0.47c0.05,0.31-0.07,0.8-0.3,0.96c-0.58,0.42-1.23,0.81-1.92,1.02
			c-0.76,0.23-1.59,0.24-2.39,0.35c-1.85,0.24-2.1,0.5-2.14,2.33c-0.05,2.67-0.05,5.33,0.56,7.95c0.11,0.46,0.07,0.97-0.03,1.44
			c-0.1,0.49-0.38,0.91-0.97,0.98c-0.67,0.08-1.32-0.03-1.6-0.67c-0.36-0.84-0.7-1.74-0.8-2.64c-0.23-1.96-0.31-3.94-0.43-5.92
			c-0.03-0.49,0.02-0.99-0.02-1.49c-0.09-1.12-0.36-1.34-1.47-1.51c-0.85-0.13-1.68-0.34-2.51-0.53c-0.18-0.04-0.35-0.14-0.5-0.25
			c-0.67-0.46-1.38-0.92-1.24-1.89c0.12-0.8,1.3-1.6,2.31-1.5c0.73,0.07,1.44,0.34,2.15,0.53c1,0.25,1.32,0.14,1.36-0.86
			c0.05-1.41-0.07-2.83-0.23-4.24c-0.15-1.35-0.47-2.68-0.68-4.02c-0.17-1.08,0.32-1.94,1.2-2.2c0.95-0.27,1.87,0.09,2.22,1.17
			c0.38,1.16,0.54,2.4,0.7,3.62c0.1,0.73,0.02,1.49,0.02,2.23C122.43,95.01,122.44,95.01,122.44,95.01z"/>
		<path class="st2" d="M60.89,103.42c-0.63,0.94-1.06,1.52-1.43,2.14c-0.51,0.85-0.95,1.74-1.49,2.56
			c-0.64,0.97-1.58,1.55-2.73,1.78c-1.54,0.31-2.65-0.15-3.51-1.47c-0.17-0.26-0.32-0.54-0.43-0.82c-1.22-3.03-1.28-6.17-0.74-9.32
			c0.09-0.52,0.63-1.08,1.11-1.38c0.89-0.56,1.98-0.16,2.22,0.86c0.2,0.87,0.17,1.83,0.04,2.73c-0.23,1.56-0.24,3.08,0.23,4.6
			c0.09,0.29,0.19,0.59,0.34,0.86c0.27,0.48,0.72,0.56,1.06,0.17c0.37-0.42,0.69-0.88,0.98-1.35c1.16-1.91,2.28-3.84,3.45-5.74
			c0.32-0.52,0.68-1.06,1.13-1.46c0.76-0.67,1.51-0.63,2.08,0.21c0.47,0.7,0.81,1.54,0.99,2.36c0.46,2.11,0.55,4.3,1.4,6.33
			c0.27,0.66-0.18,1.33-0.89,1.26c-0.63-0.06-1.34-0.33-1.82-0.73c-0.5-0.41-0.79-1.09-1.12-1.68
			C61.49,104.86,61.3,104.34,60.89,103.42z"/>
		<path class="st2" d="M127.67,110.16c0.03-2.46,0.53-4.37,1.45-6.15c0.31-0.59,0.77-1.13,1.27-1.59c1.2-1.09,2.84-1.08,4.06-0.06
			c0.64,0.53,0.72,0.99,0.17,1.57c-0.33,0.35-0.75,0.66-1.19,0.87c-1.37,0.65-2.49,3.93-2.03,5.66c0.13,0.49,0.62,0.66,1.01,0.31
			c0.41-0.37,0.81-0.78,1.11-1.24c0.75-1.13,1.45-2.31,2.17-3.46c0.23-0.37,0.41-0.77,0.69-1.09c0.92-1.07,2.01-1.15,2.83-0.05
			c1.11,1.49,2.05,3.1,3.04,4.67c0.33,0.52,0.35,1.06-0.16,1.51c-0.51,0.45-1.07,0.65-1.68,0.21c-0.55-0.4-1.09-0.81-1.62-1.24
			c-1.09-0.89-1.37-0.87-2.21,0.29c-0.29,0.4-0.5,0.86-0.79,1.26c-0.54,0.75-1.03,1.57-1.69,2.21c-2.12,2.07-5.19,1.27-6.03-1.55
			C127.84,111.46,127.75,110.59,127.67,110.16z"/>
		<path class="st2" d="M155.27,104.91c-2.27,1.29-3.58,3.11-4.97,4.84c-0.27,0.34-0.49,0.71-0.75,1.06
			c-1.08,1.42-2.95,1.24-3.71-0.37c-0.21-0.44-0.38-0.94-0.4-1.42c-0.06-1.79-0.06-3.59-0.06-5.39c0-0.24,0.09-0.48,0.19-0.71
			c0.48-1.16,2.24-1.51,2.82-0.35c0.81,1.62,2.18,1.5,3.6,0.55c0.72-0.48,1.41-1.01,2.15-1.45c1.76-1.03,3.45-0.88,4.51,1.19
			c0.14,0.28,0.34,0.52,0.46,0.81c0.62,1.5,1.39,2.88,2.61,4.01c0.72,0.67,0.42,1.58-0.53,1.83c-0.94,0.24-1.92,0.16-2.65-0.48
			c-0.78-0.68-1.41-1.53-2.07-2.34C156.05,106.16,155.72,105.58,155.27,104.91z"/>
		<path class="st2" d="M108.54,100.15c0.57,0.65,1.05,1.27,1.61,1.81c0.49,0.47,1.09,0.82,1.61,1.25c1.82,1.49,2.22,3.71,0.9,5.63
			c-1.35,1.96-3.06,3.57-5.11,4.8c-0.21,0.13-0.43,0.25-0.66,0.33c-0.5,0.19-1.06,0.21-1.33-0.28c-0.21-0.38-0.27-0.93-0.19-1.37
			c0.08-0.39,0.42-0.75,0.7-1.08c0.88-1.04,1.79-2.05,2.68-3.08c0.44-0.51,0.86-1.04,1.27-1.55c-0.24-0.82-0.94-1.05-1.43-1.49
			c-1.01-0.9-2.05-1.79-2.96-2.78c-0.87-0.93-0.91-2.16-0.71-3.35c0.31-1.88,2.75-3.29,4.61-2.72c0.94,0.29,1.23,1.41,0.55,2.28
			C109.67,99.09,109.15,99.53,108.54,100.15z"/>
		<path class="st2" d="M80.37,98.1c-0.66-0.1-1.12-0.15-1.58-0.24c-1.55-0.31-2.74,0.18-3.75,1.42c-1.82,2.23-2.68,4.85-3.34,7.57
			c-0.16,0.66-0.25,1.34-0.39,2c-0.18,0.84-0.58,1.18-1.36,1.22c-0.86,0.04-1.71-0.47-1.92-1.16c-0.04-0.12-0.05-0.24-0.06-0.37
			c-0.14-2.1-0.3-4.19-0.39-6.29c-0.06-1.35,0.24-1.83,1.59-2.07c1.07-0.19,1.58-0.77,2.09-1.6c0.79-1.29,1.87-2.31,3.25-2.97
			c2.08-1,4.25-0.44,5.57,1.45C80.23,97.28,80.24,97.6,80.37,98.1z"/>
		<path class="st2" d="M101.63,103.47c-0.15,0.58-0.21,0.94-0.34,1.28c-0.58,1.62-0.58,3.26-0.23,4.91
			c0.01,0.06,0.03,0.12,0.04,0.18c0.06,0.55,0.22,1.12-0.38,1.5c-0.56,0.36-1.54,0.26-2.05-0.28c-0.33-0.35-0.59-0.79-0.79-1.23
			c-0.93-2.1-0.69-4.21,0.1-6.28c0.18-0.49,0.59-0.94,1.01-1.27c0.49-0.39,1.17-0.6,1.71-0.13
			C101.13,102.52,101.38,103.09,101.63,103.47z"/>
		<path class="st2" d="M99.92,95.82c1.01,0.04,1.71,0.78,1.71,1.79c0,0.9-0.73,1.54-1.72,1.5c-0.95-0.04-2-1.08-1.9-1.9
			C98.1,96.44,99,95.78,99.92,95.82z"/>
		<path class="st3" d="M59.43,123.1c0.21,0.2,0.31,0.28,0.52,0.47c-0.12,1.42-0.24,2.84-0.36,4.27
			C59.53,126.26,59.48,124.68,59.43,123.1z M46.13,146.63c0,0,0-0.51,0-1.4c0-0.44,0-0.97-0.01-1.58c0-0.61-0.01-1.29-0.02-2.02
			c-0.01-0.37-0.01-0.75-0.02-1.14c-0.01-0.39-0.01-0.8-0.02-1.21s-0.02-0.84-0.03-1.26c-0.01-0.43-0.02-0.86-0.03-1.3
			c-0.13-5.09-0.3-10.19-0.38-15.29c-0.44-2.13,3.43-2.02,4.57-2.02c8.46-0.12,16.9-0.76,25.35-0.97c0.71-0.02,0.97,0.23,0.75,0.86
			c-0.68,4.18,0.12,8.9,0.31,13.13c0.19,4.39,0.31,8.78,0.29,13.17c-0.02,1.65-1.48,3.18-3.17,3.09c-5.31-0.1-10.61-0.34-15.91-0.51
			c-0.46-0.01-0.91-0.03-1.36-0.04c-0.45-0.01-0.9-0.03-1.32-0.04c-0.43-0.01-0.86-0.02-1.26-0.03c-0.41-0.01-0.81-0.02-1.2-0.03
			c-0.77-0.02-1.46-0.03-2.1-0.05c-0.64-0.01-1.2-0.02-1.67-0.03c-0.93-0.02-1.51-0.02-1.51-0.02
			C46.57,147.92,46.13,147.34,46.13,146.63z M52.61,120.92c-1.04,0.01-2.07,0.01-3.11,0.01c-0.77,0-1.38,0.42-1.36,1.28
			c0.02,1.01,0.04,2.03,0.07,3.04c0.02,0.78,0.65,1.35,1.43,1.35c1.04,0,2.08,0.01,3.12,0.01c0.75,0,1.37-0.58,1.35-1.35
			c-0.03-1.02-0.06-2.03-0.08-3.05C54,121.35,53.35,120.91,52.61,120.92z M74.14,134.81c-0.04-0.95-0.05-1.41-0.09-2.37
			c-0.95,0-1.42,0-2.37,0c-0.95,0-1.42,0-2.37,0c0.82,0.79,1.64,1.58,2.46,2.37c-2.06-0.01-4.12-0.01-6.18-0.03
			c-0.03-0.97-0.07-1.95-0.11-2.92c0.01-1.45,1.16-2.83,2.69-2.79c1.49-0.01,2.99-0.02,4.48-0.02c0.69,0,1.22-0.57,1.18-1.24
			c-0.09-2.04-0.18-4.07-0.25-6.11c-0.02-0.71-0.58-1.2-1.27-1.19c-0.72,0.01-1.08,0.02-1.8,0.03c-0.98,0.02-1.96,0.04-2.94,0.06
			c-0.51,0.01-0.76,0.02-1.27,0.03c-0.68,0.02-1.22,0.49-1.2,1.21c0.03,1.07,0.05,1.59,0.08,2.58c0.03,0.75,0.04,1.13,0.07,1.91
			c0.12,1.54-1.26,2.72-2.69,2.79c-0.98,0.01-1.96,0.01-2.94,0.02c-0.02-0.52-0.03-0.78-0.05-1.28c-0.06-1.58-0.11-3.16-0.16-4.74
			c0.82,0.74,1.63,1.51,2.43,2.28c-0.05-1.55-0.11-3.1-0.13-4.65c-0.94,0.02-1.42,0.04-2.35,0.06c-0.92,0.02-1.84,0.05-2.75,0.07
			c0.03,1.86,0.09,3.73,0.15,5.59c0.11,1.52-1.29,2.64-2.68,2.7c-0.28,0-0.41,0-0.69,0c-1.7,0-3.39-0.01-5.09-0.03
			c0.03,0.89,0.05,1.77,0.08,2.66c0.03,0.91,0.04,1.37,0.07,2.28c1.59,0.02,3.17,0.04,4.76,0.05c-0.82-0.76-1.63-1.54-2.45-2.31
			c2.06,0.02,4.12,0.02,6.19,0.02c0.03,0.96,0.07,1.91,0.1,2.87c0.12,1.54-1.33,2.65-2.74,2.7c-1.5-0.02-3.01-0.03-4.51-0.05
			c-0.14,0-0.27,0.02-0.38,0.06c-0.46,0.15-0.85,0.59-0.84,1.12c0.03,1.55,0.06,3.1,0.07,4.65c0,0.46,0.01,0.7,0.01,1.16
			c0,0.66,0.56,1.2,1.25,1.21c2.03,0.04,4.06,0.08,6.08,0.13c0.69,0.02,1.25-0.51,1.25-1.18c0-1.45-0.02-2.9-0.05-4.35
			c0.04-1.44,1.24-2.78,2.75-2.7c0.99,0.01,1.97,0.02,2.96,0.04c0.05,2.02,0.09,4.04,0.1,6.06c-0.8-0.79-1.6-1.58-2.4-2.38
			c0.01,0.93,0.02,1.39,0.03,2.32c0.01,0.93,0.01,1.39,0,2.32c0.96,0.03,1.42,0.04,2.37,0.07c0.93,0.03,1.85,0.06,2.78,0.09
			c0.01-1.88-0.01-3.77-0.04-5.65c-0.09-1.52,1.31-2.77,2.77-2.76c1.91,0.02,3.82,0.03,5.73,0.05
			C74.21,136.66,74.18,135.73,74.14,134.81z M74.32,141.63c-0.01-0.78-0.65-1.41-1.42-1.41c-1.04-0.01-2.08-0.02-3.12-0.04
			c-0.77-0.01-1.39,0.6-1.38,1.37c0.01,1.03,0.02,2.06,0.02,3.09c0,0.77,0.62,1.4,1.39,1.42c1.04,0.02,2.08,0.05,3.12,0.07
			c0.77,0.01,1.4-0.6,1.41-1.38C74.34,143.71,74.33,142.67,74.32,141.63z M59.43,123.1c0.21,0.2,0.31,0.28,0.52,0.47
			c-0.12,1.42-0.24,2.84-0.36,4.27C59.53,126.26,59.48,124.68,59.43,123.1z"/>
		<g>
			<path class="st1" d="M63.57,135.46c-0.04-1.07-0.07-2.13-0.11-3.2c-1.08,0-2.17,0-3.25,0c0.04,1.06,0.07,2.12,0.11,3.18
				C61.4,135.45,62.48,135.46,63.57,135.46z"/>
			<path class="st1" d="M70.32,142.3c0.01,0.67,0.01,1,0.01,1.67c0,0.11,0.09,0.2,0.2,0.21c0.67,0.01,1.01,0.02,1.68,0.03
				c0.11,0,0.2-0.09,0.2-0.2c0-0.67,0-1.01-0.01-1.68c0-0.11-0.09-0.2-0.21-0.21c-0.67-0.01-1.01-0.01-1.68-0.02
				C70.41,142.09,70.32,142.18,70.32,142.3z"/>
			<path class="st1" d="M54.73,144.12c-0.01-1.05-0.02-2.1-0.04-3.14c-1.09-0.02-2.19-0.03-3.28-0.05c0.02,1.04,0.03,2.09,0.04,3.13
				C52.54,144.07,53.64,144.09,54.73,144.12z"/>
			<path class="st1" d="M50.06,122.96c0.01,0.68,0.02,1.04,0.04,1.7c0,0.11,0.1,0.2,0.21,0.2c0.68,0,1.05,0,1.76,0
				c0.12,0,0.21-0.09,0.21-0.2c-0.02-0.66-0.03-1.02-0.04-1.71c0-0.11-0.1-0.2-0.22-0.2c-0.7,0-1.07,0-1.75,0
				C50.15,122.75,50.06,122.84,50.06,122.96z"/>
			<path class="st1" d="M72.22,126.52c-0.04-1.09-0.09-2.18-0.13-3.26c-1.08,0.02-2.16,0.03-3.24,0.05
				c0.04,1.08,0.08,2.16,0.12,3.25C70.05,126.54,71.14,126.53,72.22,126.52z"/>
		</g>
		<path class="st4" d="M119.76,150.28c-0.69-0.04-1.26-0.12-1.28-0.64c-0.03-0.7-0.03-1.33-0.05-2.24c-0.15-8.01,0.02-15.99-0.08-24
			c-0.09-1.71,1.42-3.04,3.08-2.97c4.4,0.22,8.8,0.36,13.19,0.47c4.26,0.11,8.92-0.28,13.16,0.63l0,0c0.66,0.25,0.95,1.14,0.96,1.83
			c0.08,8.16-0.34,16.27-0.27,24.43c0.25,1.92-3.27,1.75-4.42,1.75C135.93,149.72,127.95,150.67,119.76,150.28z M125.43,123.17
			c-1.04-0.04-2.09-0.08-3.13-0.13c-0.77-0.04-1.39,0.56-1.39,1.33c0.01,1.04,0.01,2.09,0.01,3.13c0,0.78,0.63,1.44,1.4,1.47
			c1.04,0.04,2.08,0.08,3.11,0.11c0.77,0.02,1.4-0.59,1.4-1.36c0-1.04,0-2.07,0-3.11C126.84,123.84,126.2,123.2,125.43,123.17z
			 M146.24,137.34c0.03-0.89,0.04-1.36,0.07-2.25c-0.94-0.03-1.43-0.03-2.35-0.04c-0.1,0-0.15,0-0.25,0c-0.84,0-1.25,0-2.1,0
			c0.76,0.76,1.52,1.52,2.28,2.27c-1.64,0-3.28,0.02-4.91,0.05c-0.48,0.01-0.71,0.01-1.19,0.02c0.02-0.96,0.05-1.91,0.07-2.87
			c-0.01-1.53,1.37-2.72,2.85-2.74c1.5,0,3,0.01,4.51,0.04c0.68,0.01,1.22-0.51,1.24-1.15c0.01-0.48,0.02-0.73,0.04-1.22
			c0.03-0.94,0.05-1.88,0.07-2.83c0.01-0.69,0.02-1.04,0.03-1.73c0.01-0.66-0.5-1.21-1.19-1.23c-0.19-0.01-0.29-0.01-0.51-0.02
			c-1.87-0.06-3.75-0.11-5.62-0.14c-0.68-0.01-1.24,0.52-1.24,1.19c-0.01,1.46-0.03,2.91-0.06,4.37c-0.04,1.48-1.33,2.78-2.84,2.74
			c-0.97,0-1.95,0.01-2.92,0.01c0.03-2.03,0.06-4.06,0.07-6.1c0.78,0.79,1.56,1.58,2.34,2.36c0.01-0.93,0.02-1.39,0.02-2.33
			c0.01-0.94,0.01-1.4,0-2.33c-0.95-0.02-1.41-0.03-2.37-0.05c-0.93-0.02-1.85-0.04-2.78-0.07c0.01,1.88,0.01,3.76-0.01,5.63
			c-0.03,1.52-1.32,2.9-2.9,2.82c-1.89-0.04-3.77-0.1-5.66-0.19c0,0.93-0.01,1.86-0.01,2.79c-0.01,0.96-0.01,1.43-0.02,2.38
			c1.57,0.07,3.14,0.12,4.71,0.15c-0.78-0.81-1.56-1.62-2.33-2.43c2.05,0.06,4.09,0.09,6.13,0.11c-0.01,0.98-0.03,1.96-0.04,2.93
			c-0.03,1.47-1.27,2.85-2.8,2.8c-1.48-0.01-2.96-0.04-4.44-0.09c-0.68-0.02-1.23,0.5-1.23,1.21c0,2.06,0.02,4.12,0.06,6.18
			c0.01,0.62,0.57,1.18,1.24,1.2c0.47,0.01,0.71,0.02,1.19,0.03c1.59,0.02,3.17,0.02,4.76,0c0.54-0.01,0.99-0.49,1.15-0.85
			c0.04-0.09,0.06-0.2,0.06-0.32c-0.02-1.52-0.03-3.03-0.02-4.54c-0.05-1.54,1.3-2.81,2.78-2.85c0.97-0.02,1.94-0.04,2.91-0.07
			c-0.03,2.02-0.05,4.04-0.05,6.06c-0.78-0.74-1.55-1.49-2.32-2.25c0,1.56,0.02,3.12,0.01,4.67c0.92-0.04,1.39-0.06,2.31-0.11
			c0.9-0.05,1.8-0.09,2.71-0.14c0.01-1.83,0-3.66,0.02-5.49c-0.03-1.57,1.37-2.85,2.88-2.9c1.86-0.03,3.72-0.05,5.59-0.03
			C146.18,139.11,146.21,138.23,146.24,137.34z M146.07,143.86c0.01-0.75-0.56-1.34-1.34-1.34c-1.03,0-2.05,0.02-3.08,0.04
			c-0.76,0.02-1.39,0.62-1.4,1.38c-0.01,1.03-0.02,2.07-0.02,3.1c0,0.7,0.61,1.22,1.37,1.19c1.02-0.03,2.03-0.06,3.05-0.08
			c0.77-0.01,1.38-0.55,1.38-1.23C146.05,145.89,146.06,144.87,146.07,143.86z"/>
		<g>
			<path class="st1" d="M135.17,137.5c0.02-1.01,0.04-2.01,0.06-3.02c-1.02,0.01-2.04,0.02-3.06,0.03
				c-0.02,1.02-0.03,2.03-0.05,3.05C133.14,137.53,134.16,137.51,135.17,137.5z"/>
			<path class="st1" d="M142.22,144.58c-0.01,0.61-0.01,0.9-0.01,1.67c0,0.13,0.09,0.22,0.2,0.22c0.64-0.02,1.01-0.03,1.64-0.04
				c0.11,0,0.19-0.1,0.19-0.23c0-0.76,0.01-1.05,0.01-1.66c0-0.1-0.09-0.19-0.19-0.19c-0.63,0.01-1,0.01-1.64,0.03
				C142.31,144.39,142.22,144.47,142.22,144.58z"/>
			<path class="st1" d="M126.71,146.12c-0.01-1.03-0.01-2.06-0.01-3.09c-1.01,0-2.03-0.02-3.04-0.04c0,1.03,0.01,2.07,0.02,3.1
				C124.69,146.11,125.7,146.12,126.71,146.12z"/>
			<path class="st1" d="M122.92,125.19c0,0.67,0,1.01,0.01,1.68c0,0.11,0.09,0.21,0.2,0.21c0.67,0.03,1.01,0.04,1.68,0.06
				c0.11,0,0.2-0.08,0.2-0.2c0-0.67,0-1.01,0-1.68c0-0.11-0.09-0.21-0.21-0.21c-0.67-0.02-1.01-0.04-1.68-0.07
				C123.01,124.99,122.91,125.08,122.92,125.19z"/>
			<path class="st1" d="M143.85,129.19c0.03-0.99,0.05-1.97,0.06-2.96c-1.03-0.02-2.07-0.04-3.1-0.06
				c-0.02,0.99-0.03,1.99-0.05,2.98C141.79,129.16,142.82,129.17,143.85,129.19z"/>
		</g>
		<path class="st2" d="M104.26,147.43c-0.03-1.22-0.63-4.92,0.43-5.9c1-0.93,4.79,0.04,5.9,0.08c-0.06,1.15,0.57,5.06-0.49,5.98
			C109.01,148.54,105.49,147.54,104.26,147.43z M108.47,145.36c0.12-1.6-0.09-1.91-1.66-1.95c-0.26-0.01-0.48,0.2-0.5,0.47
			c-0.12,1.54,0.04,1.93,1.66,1.96C108.23,145.86,108.45,145.66,108.47,145.36z"/>
		<path class="st2" d="M84.16,125.64c0.05-1.27-0.62-4.73,0.42-5.76c1.01-1,4.85-0.16,6.01-0.13c-0.03,1.2,0.61,4.79-0.45,5.78
			C89.06,126.53,85.43,125.66,84.16,125.64z M88.48,123.33c0.12-1.55-0.21-1.76-1.7-1.73c-0.27,0.01-0.5,0.21-0.52,0.46
			c-0.11,1.5,0.17,1.76,1.71,1.73C88.24,123.78,88.46,123.58,88.48,123.33z"/>
		<path class="st1" d="M107.76,138.63c-0.53-0.01-1.05-0.05-1.58-0.09c0,0-0.01,0-0.01,0c-1.1-0.08-2.2-0.16-3.29-0.26
			c-0.24-0.02-0.48-0.04-0.73-0.06c-0.22-0.02-0.4,0.15-0.41,0.37c-0.05,1.21-0.1,2.44-0.12,3.63c-0.02,1.22,0.15,3.88-1.1,4.59
			c-0.68,0.39-1.6,0.36-2.52,0.21c-1.12-0.19-1.68-0.73-1.86-1.06c-0.05-0.09-0.05-0.53-0.05-0.7c0.01-0.57,0.07-1.48,0.1-2.24
			c0.02-0.5,0.62-0.72,0.95-0.32c0.32,0.39,0.49,0.57,0.82,0.92c0.25,0.26,0.68,0.14,0.68-0.22c0.01-0.99,0.08-1.98,0.16-2.96
			c0.05-0.66,0.23-1.54-0.22-2.15c-0.53-0.73-1.63-0.56-2.38-0.64c-0.82-0.08-1.75-0.41-2.53-0.12c-0.98,0.36-0.93,1.55-0.93,2.4
			c0,1.44-0.04,3.02-0.1,4.47c-0.04,0.98-0.97,1.8-1.97,1.73c-1.45-0.1-5.4,0.5-6.58-0.77c-1.25-1.33-0.35-5.07-0.29-6.68
			c0.03-0.86,0.8-1.61,1.7-1.58c1.28,0.04,2.57,0.1,3.86,0.16c0.61,0.03,1.23,0.06,1.81,0.14c0.93,0.11,1.94-0.34,1.91-1.42
			c-0.02-0.59-0.06-1.21-0.06-1.81c0-0.57,0.07-1.14-0.02-1.71c-0.16-1.06-1.09-1.11-2-1.12c-1.16-0.02-2.33-0.02-3.49-0.06
			c-0.36-0.01-0.56,0.4-0.32,0.66c0.36,0.38,0.58,0.57,0.93,0.96c0.29,0.32,0.07,0.83-0.38,0.82c-0.76-0.02-2.95,0.33-3.61-0.36
			c-0.57-0.59-0.13-2.21-0.08-2.89c0.09-1.24,1.16-2.13,2.37-2.08c1.45,0.06,5.06,0.97,6.31-0.18c1.23-1.12,0.61-4.73,0.63-6.11
			c0.02-1.23,1.06-2.18,2.28-2.18c0.7,0,2.45-0.31,3.03,0.27c0.65,0.65,0.16,2.84,0.12,3.56c-0.02,0.46-0.6,0.66-0.92,0.32
			c-0.35-0.37-0.53-0.56-0.88-0.93c-0.25-0.26-0.69-0.1-0.7,0.25c-0.02,0.93-0.09,1.86-0.16,2.78c-0.05,0.55-0.13,1.13-0.06,1.67
			c0.13,0.97,1.06,1.06,1.89,1.14c1.01,0.09,2.03,0.17,3.04,0.22c0.97,0.05,1.23-0.64,1.22-1.48c-0.01-0.57,0.02-1.14,0.03-1.71
			c0.01-0.82,0.04-1.67,0.03-2.46c-0.01-0.82-0.03-1.98,0.43-2.7c0.4-0.62,1.28-0.67,1.96-0.66c1.55,0.01,3.15,0.16,4.71,0.24
			c0.73,0.04,1.47,0.06,2.21,0.07c-0.18,2.63,0.63,6.35-0.63,8.48c-0.36,0.61-1.31,0.66-1.99,0.66c-1.24-0.02-2.48-0.12-3.72-0.27
			c-0.7-0.09-1.49-0.22-2.18,0.03c-0.85,0.3-0.99,0.98-1.03,1.78c-0.03,0.56-0.08,1.14-0.11,1.71c-0.03,0.56-0.08,1.19,0.08,1.74
			c0.1,0.36,0.34,0.59,0.7,0.7c0.53,0.16,1.11,0.14,1.65,0.16c0.96,0.02,1.92,0.07,2.88,0.1c0.18,0.01,0.38-0.01,0.5-0.17
			c0.11-0.15,0.09-0.32-0.01-0.47c-0.25-0.37-0.6-0.69-0.9-1.02c-0.3-0.33-0.05-0.86,0.39-0.85c0.63,0.02,1.26,0.03,1.88,0.05
			c0.39,0.01,0.79,0.01,1.17,0.08c0.73,0.13,0.74,0.94,0.73,1.51c-0.03,0.88-0.1,2.21-0.8,2.9c-0.34,0.34-0.78,0.65-1.23,0.83
			C108.57,138.62,108.16,138.64,107.76,138.63z M87.48,140.01c-0.49-0.01-0.87,0.33-0.9,0.81c-0.12,2.15,0.19,2.42,2.34,2.45
			c0.48,0.01,0.88-0.31,0.9-0.8C89.93,140.31,89.66,140.05,87.48,140.01z M107.94,126.63c0.27,0.01,0.5-0.21,0.52-0.48
			c0.18-2.7,0.01-2.85-2.67-2.91c-0.27-0.01-0.5,0.21-0.52,0.48C105.11,126.39,105.25,126.58,107.94,126.63z M99.12,132.75
			c0-0.47-0.37-0.89-0.84-0.94c-2.18-0.22-2.48,0.01-2.49,2.2c0,0.47,0.37,0.88,0.85,0.93C98.82,135.18,99.11,134.95,99.12,132.75z"
			/>
	</g>
</g>
</svg>
